<?xml version="1.0" standalone="no"?>
<!DOCTYPE svg PUBLIC "-//W3C//DTD SVG 1.1//EN" "http://www.w3.org/Graphics/SVG/1.1/DTD/svg11.dtd" >
<svg xmlns="http://www.w3.org/2000/svg" xmlns:xlink="http://www.w3.org/1999/xlink" version="1.1">
<metadata></metadata>
<defs>
<font id="bangersregular" horiz-adv-x="886" >
<font-face units-per-em="2048" ascent="1638" descent="-410" />
<missing-glyph horiz-adv-x="399" />
<glyph horiz-adv-x="0" />
<glyph unicode="&#xd;" horiz-adv-x="399" />
<glyph horiz-adv-x="0" />
<glyph horiz-adv-x="0" />
<glyph unicode=" "  horiz-adv-x="399" />
<glyph unicode="&#x09;" horiz-adv-x="399" />
<glyph unicode="&#xa0;" horiz-adv-x="399" />
<glyph unicode="!" horiz-adv-x="538" d="M-8 145q0 39 12 75t38 63.5t63.5 46t91.5 18.5q119 0 178 -56t59 -128q0 -39 -17.5 -78t-50 -68.5t-81.5 -47t-113 -17.5q-43 0 -78 16.5t-56.5 44t-33.5 62.5t-12 69zM176 473q63 252 123.5 502t126.5 502q39 6 89 12t101.5 14t99.5 14.5t81 12.5q-111 -258 -202 -519 t-181 -526q-60 0 -119 -4t-119 -8z" />
<glyph unicode="&#x22;" horiz-adv-x="862" d="M147 901q37 137 72 264q14 55 30.5 113.5t32 116t28 109.5t22.5 93q18 -2 35.5 -2h31.5q76 0 143.5 4.5t147.5 4.5q-37 -84 -82 -198t-82 -218q-47 -121 -90 -248zM584 922q47 121 90 237q39 102 79 216t66 206q53 2 95 5t81 7t80 9.5t92 11.5q-37 -102 -83 -218 t-89 -218q-49 -117 -98 -236z" />
<glyph unicode="#" horiz-adv-x="1282" d="M90 283l37 338q6 0 28.5 1t48 3t48 3t31.5 1q4 14 8 39.5t8 52.5t8 53.5t6 40.5h-139q2 23 7 71t9 95q6 57 13 121l162 10q14 68 24 133q10 57 20.5 114.5t18.5 96.5l62.5 5t82.5 7.5t93.5 8.5t89.5 6q-10 -35 -22.5 -95.5t-24.5 -119.5q-14 -70 -31 -148l223 13 q16 74 33 141q14 57 29.5 117.5t23.5 95.5q80 4 158 12t158 19q-12 -35 -29 -97.5t-33 -120.5q-16 -70 -35 -147l205 8q-12 -53 -25 -106q-10 -47 -21 -103.5t-19 -109.5l-213 -13q-4 -18 -9.5 -41.5t-9.5 -49t-9 -51t-9 -44.5l225 14q-8 -49 -14.5 -89t-12.5 -76.5 t-13 -76.5t-13 -91q-6 0 -17.5 1t-25.5 1q-23 0 -49.5 -1t-53 -1t-48 -1t-30.5 -1q-14 -70 -24 -139.5t-25 -139.5q-168 4 -329 4q18 70 36.5 136.5t32.5 135.5q-10 0 -43 -2t-68.5 -5t-67.5 -5t-44 -2q-12 -72 -26.5 -142.5t-30.5 -139.5q-84 -5 -167 -12t-167 -21 q23 74 45 148.5t43 148.5q-23 0 -59.5 -2t-59.5 -2zM582 629q8 0 36.5 2t62.5 4t64.5 4t45.5 2q6 0 13 24.5t13 56.5t12.5 62.5t10.5 42.5q-8 0 -40 -2t-68 -4t-67.5 -4t-39.5 -2z" />
<glyph unicode="$" horiz-adv-x="905" d="M43 221l147 299q14 -29 38 -58.5t51.5 -55t58.5 -42t57 -16.5q53 0 96.5 34t43.5 118q0 37 -27 73.5t-64.5 74.5t-84 80t-84 88t-63.5 97.5t-26 108.5q0 61 28 119.5t76 107.5t110.5 88t127.5 68q16 76 29.5 125t30.5 102l280 33l-82 -207q55 -2 103.5 -17.5t84.5 -45 t56.5 -76.5t20.5 -113q0 -29 -4.5 -55.5t-8.5 -56.5l-295 -66q4 25 6.5 32t2.5 13q0 63 -23.5 90t-56.5 27q-20 0 -42 -9.5t-41.5 -23.5t-30.5 -36.5t-11 -47.5q0 -33 27.5 -62.5t68.5 -60t89 -67.5t89 -86t69 -115t28 -154q0 -84 -27 -156.5t-75 -132t-111.5 -102.5 t-139.5 -67q-8 -57 -13 -114.5t-5 -80.5l-256 -22q6 31 12 65q6 29 14.5 61.5t18.5 61.5q-74 6 -148.5 49t-144.5 131z" />
<glyph unicode="%" horiz-adv-x="1636" d="M168 911q0 104 39 220t107.5 213.5t157.5 161t192 63.5q59 0 101 -26.5t69.5 -69.5t41 -101.5t13.5 -126.5q0 -100 -32 -211.5t-89 -203t-142 -149.5t-194 -58q-70 0 -120 22.5t-81.5 61t-47 92t-15.5 112.5zM223 20q23 23 76 98t126 179t159 231t175 258.5t174 257 t153.5 230t114.5 177.5t61 97q68 -16 135 -28q53 -12 110.5 -22.5t89.5 -14.5q-88 -129 -200.5 -297t-233.5 -348q63 66 136 106.5t155 40.5q57 0 100 -25.5t72 -68.5t41 -102.5t12 -124.5q0 -102 -30.5 -213t-90 -202t-144.5 -149.5t-191 -58.5q-70 0 -120 22.5t-83 61.5 t-47.5 92t-14.5 113q0 76 19.5 156.5t58.5 158.5q-96 -141 -181 -268t-148 -225q-76 -113 -144 -211zM414 969q0 -41 17.5 -69t55.5 -28q47 0 84 24t64 59.5t41 78.5t14 84q0 49 -23.5 84t-72.5 35q-37 0 -69.5 -27.5t-56.5 -67.5t-39 -87t-15 -86zM1204 385 q0 -39 16.5 -66.5t57.5 -27.5q45 0 83 23.5t64.5 59.5t41 79t14.5 84q0 49 -23.5 82.5t-73.5 33.5q-37 0 -69.5 -26.5t-56 -66.5t-39 -87t-15.5 -88z" />
<glyph unicode="&#x26;" horiz-adv-x="1095" d="M41 330q0 76 25.5 154.5t71.5 147t111.5 120t147.5 73.5q-47 25 -80.5 55.5t-59.5 73.5t-26 99q0 102 45.5 189t121 148.5t175 95.5t207.5 34q96 0 177 -44t126 -122l-168 -189q-16 14 -31.5 29.5t-38 27t-55 17.5t-81.5 6q-41 0 -72 -14t-51.5 -41t-29.5 -58.5t-9 -64.5 q0 -37 10 -69.5t31.5 -60.5t54.5 -43t76 -15h20.5t24.5 4q0 14 2 26t3 26.5t3 27.5q82 0 150.5 4t148.5 8q-4 -10 -4 -31v-35v-16q10 0 34.5 3t51.5 9t61 15l23 -209q-37 -6 -67.5 -11.5t-58.5 -8.5t-36 -3q0 -153 -33.5 -284.5t-108.5 -226.5t-193.5 -149.5t-290.5 -54.5 q-109 0 -187 30t-127 78t-71.5 113.5t-22.5 135.5zM367 379q0 -66 39.5 -107t109.5 -41q72 0 116 49.5t68.5 119t34.5 146.5t15 134q-104 -8 -177 -36t-119 -70t-66.5 -92t-20.5 -103z" />
<glyph unicode="'" horiz-adv-x="413" d="M160 944q29 111 55 221q25 96 52.5 211t49.5 217q12 -2 35 -3t45.5 -2t45 -1h32.5q29 0 67 4t74.5 10.5t79.5 14.5l-200 -637z" />
<glyph unicode="(" horiz-adv-x="684" d="M88 514q0 176 40 351t120 339t198.5 313.5t276.5 278.5l258 -244q-86 -74 -185.5 -176t-181.5 -230t-136 -282.5t-54 -333.5q0 -94 28.5 -185t73.5 -167t99.5 -132t103.5 -83l-266 -244q-78 39 -145.5 110t-119 172t-81 230t-29.5 283z" />
<glyph unicode=")" horiz-adv-x="677" d="M-117 4q133 57 233.5 164.5t168 241t102.5 282t35 291.5q0 90 -14.5 175t-42 160t-69.5 135t-99 103l321 240q143 -162 214 -360.5t71 -415.5q0 -242 -70.5 -456t-178.5 -385t-237 -289.5t-247 -170.5z" />
<glyph unicode="*" horiz-adv-x="866" d="M156 559l194 225l-194 -12l28 244l219 -23l-133 244l219 133l109 -299l166 297l190 -145l-198 -222l205 25l-17 -268l-244 35l150 -240l-258 -100l-62 262l-145 -256z" />
<glyph unicode="+" horiz-adv-x="636" d="M102 479q4 55 9.5 104.5t11.5 101.5t12 99h23q23 0 51.5 1t57 3.5t57.5 6.5q6 41 14 82q6 33 13 73.5t16 79.5q63 4 124.5 8t122.5 15q-10 -41 -20 -86t-21 -82q-10 -47 -18 -88q29 2 59 6q27 4 53.5 6t49.5 4q-10 -45 -19.5 -86t-17.5 -81t-15.5 -81t-15.5 -88 q-20 0 -48 1t-52 1q-31 0 -62 2q-2 -41 -8 -82q-4 -35 -9 -75.5t-13 -79.5l-244 -15q8 39 18.5 83t18.5 85l16 82h-164z" />
<glyph unicode="," horiz-adv-x="403" d="M-70 -227q16 82 35 167t35 163.5t29.5 146t19.5 119.5q16 0 52 -1t55 -1h74.5t92 2t97.5 4q-16 -76 -44 -179.5t-58.5 -206t-65.5 -214.5h-322z" />
<glyph unicode="-" horiz-adv-x="737" d="M84 489l98 363q55 -2 105.5 -4t101.5 -3t86 -1q43 0 102.5 1t118 3t121.5 6l-69 -367q-72 2 -136.5 4.5t-131 3.5t-111.5 1q-37 0 -85 -1t-97.5 -3.5t-102.5 -2.5z" />
<glyph unicode="." horiz-adv-x="428" d="M-16 145q0 39 12 75t37.5 63.5t63.5 46t91 18.5q119 0 178.5 -56t59.5 -128q0 -39 -17.5 -78t-50 -68.5t-82 -47t-112.5 -17.5q-43 0 -78 16.5t-56.5 44t-33.5 62.5t-12 69z" />
<glyph unicode="/" horiz-adv-x="1128" d="M-23 20q45 59 118 161t162 229t189.5 272t201 295.5t195.5 296t173 274.5q18 -12 60 -23.5t92.5 -19.5t100.5 -13t83 -9q-61 -92 -138 -208t-161 -241t-171 -255t-169 -251q-193 -286 -396 -587z" />
<glyph unicode="0" horiz-adv-x="970" d="M82 449q0 109 24.5 231.5t70.5 239t111.5 223t142.5 186.5t165 128t182 48q76 0 132.5 -39t93 -106.5t54 -158.5t17.5 -193q0 -111 -18.5 -227.5t-56 -228.5t-92 -212t-126 -175t-158.5 -119t-190 -44q-94 0 -160.5 35t-108.5 95.5t-62.5 141t-20.5 175.5zM389 516 q0 -76 24.5 -123t82.5 -47q76 0 139 51.5t108 128t70 167.5t25 173q0 88 -34 149.5t-108 61.5q-59 0 -114.5 -56t-97.5 -141t-68.5 -183.5t-26.5 -180.5z" />
<glyph unicode="1" horiz-adv-x="655" d="M150 1014l12 87t18 120q8 70 21 151q47 10 131 27q72 12 190.5 30.5t294.5 47.5q-43 -180 -79 -350.5t-67.5 -340.5t-61 -343t-58.5 -355q-47 -14 -108.5 -28.5t-120.5 -24.5q-66 -15 -136 -27q41 184 80 369q16 78 33.5 165l35 174t34 173t28.5 162q-49 -4 -96 -13 q-39 -6 -81 -13t-70 -11z" />
<glyph unicode="2" horiz-adv-x="956" d="M2 18l35 258q6 63 62.5 132t134 139.5t166.5 137.5t165 128t126 113.5t50 91.5q0 61 -23.5 95t-58.5 34t-60.5 -15.5t-38.5 -40t-19 -53t-6 -57.5v-20q0 -6 2 -9q-55 -4 -115 -10q-51 -4 -113.5 -11t-124.5 -13q-2 16 -3 33.5t-1 31.5q0 121 47 216t122 159.5t170 99.5 t190 35q78 0 148.5 -24.5t124.5 -75t87 -127t33 -183.5q0 -102 -53.5 -199.5t-147.5 -190.5t-223 -181t-281 -168q55 0 142.5 4t178.5 11.5t197 15.5l-32 -297q-49 -4 -111.5 -8t-133.5 -8.5t-145.5 -9.5t-144.5 -9q-166 -13 -346 -25z" />
<glyph unicode="3" horiz-adv-x="937" d="M20 252q0 47 19 104l358 21q0 -41 20.5 -59.5t51.5 -18.5q27 0 57.5 13.5t58 36t45 51t17.5 63.5q0 49 -47 90t-156 41q-80 0 -157.5 -11.5t-130.5 -15.5l37 303q61 39 126.5 83t118.5 85q63 45 121 92l-330 -6l25 353q186 8 346 16q68 0 138.5 3t132 6t111.5 4t79 1 l-49 -436l-410 -215q102 -18 175 -51t119 -77t66.5 -96t20.5 -108q0 -94 -51 -192.5t-138 -177t-201 -129t-235 -50.5q-70 0 -131 16.5t-107 50.5t-73 86t-27 124z" />
<glyph unicode="4" horiz-adv-x="940" d="M45 481q68 203 129 387q27 78 53.5 161t52 161t48 147.5t41.5 120.5q86 0 162.5 5t164.5 18q-76 -190 -140 -383t-126 -391q-2 -14 -4 -24.5t-6 -25.5h145q2 14 8.5 46t14.5 75t17 94.5t20 104.5q20 119 49 260q66 10 133 18q55 8 114.5 14.5t102.5 10.5 q-2 -20 -11 -69.5t-20.5 -111t-23 -131t-23.5 -131t-20 -110.5t-13 -70h117l-84 -327h-104l-19 -269l-377 -65l41 328l-352 -27z" />
<glyph unicode="5" horiz-adv-x="921" d="M90 354q0 39 3 82t7 90l316 -24q-10 -31 -10 -49q0 -41 24.5 -59.5t56.5 -18.5q27 0 54.5 11t51 35.5t38 61.5t14.5 86q0 25 -7 48.5t-30.5 40t-66.5 27.5t-113 11q-18 0 -37.5 -1t-52.5 -5t-79 -11t-118 -20q23 154 55.5 353.5t79.5 451.5l781 29l-41 -334 q-115 -4 -232.5 -8t-240.5 -10q-4 -29 -9.5 -74t-11.5 -98q131 0 223.5 -24.5t149.5 -67.5t83 -101.5t26 -130.5t-25 -147.5t-67 -148.5t-99 -138.5t-121.5 -114.5t-134.5 -77.5t-135 -28.5q-78 0 -140.5 26.5t-104.5 74.5t-64.5 115.5t-22.5 147.5z" />
<glyph unicode="6" horiz-adv-x="978" d="M106 518q0 250 67 437.5t168 311.5t220 184t223 60q76 0 133.5 -28.5t96.5 -76.5t57.5 -111.5t18.5 -137.5l-281 -133q0 76 -20.5 110.5t-55.5 34.5q-23 0 -52.5 -28.5t-59 -79.5t-57 -122t-48.5 -155q90 27 168 27q86 0 149.5 -29.5t107.5 -79t66.5 -113t22.5 -130.5 q0 -82 -30.5 -163t-92 -143.5t-155 -102.5t-217.5 -40q-86 0 -164 32t-136.5 95.5t-93.5 157.5t-35 223zM469 494q0 -97 30.5 -137t69.5 -40q41 0 76 14.5t60.5 37t41 53.5t15.5 59q0 33 -35 57.5t-125 24.5q-29 0 -60.5 -4t-70.5 -16q-2 -12 -2 -24.5v-24.5z" />
<glyph unicode="7" horiz-adv-x="694" d="M59 18l408 1121l-303 -45l63 360l719 62l-520 -1465z" />
<glyph unicode="8" horiz-adv-x="1060" d="M41 315q0 70 17.5 145t57.5 142.5t102.5 123.5t150.5 87q-68 55 -97.5 114.5t-29.5 123.5q0 90 54 175t141 150.5t197.5 106.5t223.5 41q88 0 152.5 -25.5t107.5 -69t64.5 -100.5t21.5 -117q0 -55 -16.5 -109t-48 -103.5t-77.5 -90.5t-106 -67q72 -76 104 -159t32 -165 q0 -106 -49.5 -203.5t-134.5 -172t-198.5 -120t-244.5 -45.5q-90 0 -169 19.5t-135.5 59.5t-88 104.5t-31.5 154.5zM338 420q0 -51 41 -90t141 -39q74 0 125 16.5t82 44t44 62.5t13 67q0 104 -44 146.5t-103 42.5q-49 0 -102.5 -21.5t-97.5 -57.5t-71.5 -81t-27.5 -90z M563 1020q0 -45 30 -81t81 -36q37 0 73.5 18.5t66.5 45t49.5 61.5t19.5 64q0 27 -13.5 45t-35 30.5t-46 17.5t-49.5 5q-45 0 -77.5 -15.5t-55 -39t-33 -54t-10.5 -61.5z" />
<glyph unicode="9" horiz-adv-x="1001" d="M143 1044q0 113 42 202t111 150.5t156 93.5t177 32t178 -33t155.5 -101.5t109.5 -174t42 -248.5q0 -209 -69.5 -384t-184.5 -301t-260 -196t-301 -70l31 340q68 0 130 23.5t112.5 69t86 110t54.5 141.5q-47 -29 -99.5 -43t-103.5 -14q-70 0 -136.5 28.5t-116.5 81 t-82 126t-32 167.5zM477 1083q0 -67 45 -98t99 -31q51 0 94 29t43 84q0 94 -34 126t-81 32q-27 0 -57.5 -10.5t-54 -29t-39 -44t-15.5 -58.5z" />
<glyph unicode=":" horiz-adv-x="399" d="M41 86q23 115 41 227.5t35 227.5q45 2 91 3t91 1h55.5t53.5 -2q-18 -102 -35 -206t-33 -206q-76 -2 -150.5 -12t-148.5 -33zM147 688q16 115 35 224.5t35 220.5q78 0 153.5 12t151.5 35q-29 -119 -49 -241t-39 -243q-66 -4 -132 -6t-130 -2h-25z" />
<glyph unicode=";" horiz-adv-x="536" d="M39 -53q14 82 33.5 167t36 163.5t30 146.5t19.5 119q16 0 52 -1t54 -1h75t91 2t98 4q-16 -78 -43.5 -180.5t-59.5 -205t-65 -214.5h-321zM201 688q14 115 32.5 224.5t36.5 220.5h72t72 1t81 2t99 5q-6 -70 -14.5 -124t-16.5 -105.5t-18 -103.5t-19 -112q-35 -2 -73.5 -3 t-78.5 -2t-79 -2t-72 -1h-22z" />
<glyph unicode="&#x3c;" horiz-adv-x="591" d="M96 469q27 139 46.5 276.5t39.5 276.5q152 115 302.5 231.5t289.5 253.5q-35 -117 -61.5 -236.5t-53.5 -242.5q-90 -72 -183 -136.5t-183 -131.5q76 -68 150.5 -136.5t150.5 -136.5q-25 -106 -45.5 -212.5t-46.5 -215.5q-102 104 -204.5 202.5t-201.5 207.5z" />
<glyph unicode="=" horiz-adv-x="618" d="M18 6q27 80 48.5 160t37.5 164h168h145.5t143.5 -4q-4 -76 -8 -153t-8 -155q-106 6 -213 7q-78 0 -157 -4.5t-157 -14.5zM129 524q10 82 16.5 159t10.5 157q53 -4 105 -6.5t106 -2.5q80 0 157.5 5.5t155.5 15.5q-27 -82 -47.5 -163t-36.5 -165q-55 0 -109.5 -1t-109.5 -1 q-63 0 -123.5 1t-124.5 1z" />
<glyph unicode="&#x3e;" horiz-adv-x="604" d="M29 2q31 121 54 244t44 246q94 70 192.5 135t194.5 133q-70 61 -140.5 124.5t-140.5 125.5q10 119 23.5 233.5t26.5 233.5q106 -111 216.5 -217.5t221.5 -217.5q-29 -145 -52.5 -286.5t-43.5 -286.5q-152 -113 -304.5 -223.5t-291.5 -243.5z" />
<glyph unicode="?" horiz-adv-x="897" d="M197 123q0 39 14 79t44 72.5t73 53t98 20.5q113 0 165 -49t52 -113q0 -43 -18.5 -84t-55.5 -74.5t-91 -54t-122 -20.5q-82 0 -120.5 50t-38.5 120zM223 1292q104 94 235.5 148.5t266.5 54.5q66 0 124 -13.5t102 -45t71 -81.5t27 -122q0 -100 -33 -171t-81 -124 t-108.5 -98t-116 -92.5t-100.5 -104.5t-63 -135l-121 -12l-121 -13q0 111 32 197t79 152.5t101 119t101.5 94t78 75.5t30.5 67q0 12 -16.5 33.5t-51.5 21.5q-39 0 -95 -31.5t-113.5 -73.5t-118.5 -98z" />
<glyph unicode="@" horiz-adv-x="2021" d="M92 457q0 164 53.5 302t144.5 251.5t214 199.5t262 143.5t288.5 88.5t293.5 31q188 0 328.5 -57.5t233.5 -151t139 -213t46 -242.5q0 -127 -47 -248t-141.5 -216t-236.5 -153.5t-331 -58.5q-35 0 -69.5 5t-64 16.5t-46 29t-16.5 39.5q0 29 8 56q-78 -49 -151.5 -78 t-149.5 -29q-78 0 -134.5 20.5t-94 55.5t-55 82t-17.5 100q0 86 48 174t133 165t199.5 133t192.5 67.5t105.5 13.5t58.5 2q68 0 153 -18.5t175 -69.5q-12 -41 -25 -86q-10 -37 -21.5 -82t-21.5 -86l-63 -258q172 94 237.5 202.5t65.5 215.5q0 92 -41 160.5t-110.5 114.5 t-163 67.5t-197.5 21.5q-154 0 -306.5 -44t-275.5 -130t-198.5 -212t-75.5 -287q0 -141 51 -283l-260 -258q-61 131 -89 257t-28 247zM862 494q0 -48 29 -78.5t113 -30.5q45 0 94 13.5t94 35.5l113 365q-16 4 -30.5 6t-31.5 2q-66 0 -133.5 -24.5t-122.5 -66.5t-90 -99.5 t-35 -122.5z" />
<glyph unicode="A" d="M-43 12q82 272 162 537q33 111 68.5 231.5t71.5 240.5t68.5 230.5t57.5 202.5q139 10 283.5 24.5t281.5 39.5q-6 -66 -13 -163.5t-13 -212t-12.5 -239.5t-12.5 -246q-10 -283 -22 -600q-61 -10 -123 -16q-52 -8 -113 -18.5t-111 -18.5q8 68 17 133q6 57 11 114.5t9 98.5 h-178l-82 -295q-45 -6 -106.5 -13t-114.5 -13q-66 -8 -129 -17zM438 555q8 0 29.5 1t45.5 2t44.5 2t28.5 3q0 12 3 42t6 68t7 83t8 88q8 104 21 225l12 178l-31 -2l-47 -176z" />
<glyph unicode="B" horiz-adv-x="876" d="M-2 4q98 358 156.5 722t111.5 732q106 23 221 40.5t238 17.5q51 0 108.5 -12.5t104.5 -45.5t79 -86t32 -135q0 -78 -26 -145.5t-65.5 -123t-91 -95t-104.5 -60.5q27 -14 55.5 -41t53 -62.5t40 -85t15.5 -110.5q0 -84 -35 -155.5t-94.5 -130t-138 -102.5t-165.5 -73.5 t-178.5 -45t-175.5 -15.5q-76 0 -141 12zM399 406q39 4 88.5 14t94.5 31.5t75.5 57.5t30.5 87q0 37 -19.5 61.5t-49 41t-64.5 23.5t-66 7h-17t-15 -2q-8 -49 -15.5 -87t-13.5 -73t-13 -72.5t-16 -88.5zM504 981q45 8 90 22.5t81 32t57.5 38t21.5 44.5q0 31 -18.5 50.5 t-48.5 31.5t-61.5 17.5t-56.5 5.5h-20q-4 -23 -9 -53.5t-11.5 -64.5t-13.5 -66.5t-11 -57.5z" />
<glyph unicode="C" horiz-adv-x="847" d="M80 449q0 193 53 380t149.5 336.5t228.5 240.5t292 91q49 0 94 -20.5t78 -57.5t52.5 -90t19.5 -119v-25.5t-3 -27.5l-268 -72q-25 51 -57 52q-33 0 -69 -38t-70.5 -98.5t-67.5 -135t-57.5 -150.5t-40 -144.5t-15.5 -111.5q0 -66 17.5 -92.5t46.5 -26.5q23 0 51.5 17.5 t53 45t45 62.5t28.5 70l233 -95q-49 -112 -109 -195t-127 -139.5t-134.5 -83t-130.5 -26.5t-115.5 28.5t-91.5 86t-62.5 141.5t-23.5 197z" />
<glyph unicode="D" horiz-adv-x="903" d="M8 0q55 283 109 551q20 113 42.5 234.5t43 240.5t40 227.5t31.5 196.5q88 16 178.5 30.5t184.5 14.5q111 0 187.5 -35t124.5 -96t70.5 -143t22.5 -174q0 -107 -30.5 -227t-86 -237.5t-136 -225t-183 -188.5t-224.5 -130t-259 -49q-29 0 -57.5 3t-57.5 7zM367 248 q49 33 95 89t87 130t74.5 156t58.5 159.5t38 145t13 116.5q0 76 -42 119t-132 43q-22 -121 -47 -231.5t-49.5 -223t-49 -235.5t-46.5 -268z" />
<glyph unicode="E" horiz-adv-x="698" d="M16 -2l269 1456l647 55q-14 -45 -25 -92q-10 -39 -19 -81t-16 -74q-20 -2 -58 -3.5t-81 -2.5t-87 -1h-77l-71 -366q63 4 118 6q45 2 92.5 2t69.5 2q-8 -57 -15 -112.5t-18 -112.5q-20 -2 -66 -3t-93 -3q-53 -2 -117 -4l-70 -377l299 47l-20 -234z" />
<glyph unicode="F" horiz-adv-x="698" d="M8 -2q25 88 48.5 197.5t47 230.5t45 245t41.5 238q43 272 86 564l687 34l-60 -252h-321l-64 -364q63 2 121 2h96t76 2q-6 -57 -15.5 -112.5t-17.5 -110.5q-27 0 -76 1t-101 3t-118 4l-94 -604q-70 -12 -137 -27q-57 -10 -125 -24.5t-119 -26.5z" />
<glyph unicode="G" horiz-adv-x="1021" d="M86 485q0 264 76 461t191.5 328t247.5 194.5t247 63.5q82 0 142.5 -28.5t99 -77t56 -113t17.5 -135.5l-280 -54q-18 82 -49 117t-70 35q-51 0 -112.5 -73t-115 -187.5t-90 -251.5t-40.5 -270q0 -127 37.5 -181.5t97.5 -54.5q41 0 85 20.5t78.5 58.5t58 88t25.5 110 l-219 -33l39 203q96 12 189 24q78 10 165 24.5t152 26.5q-14 -209 -81.5 -363.5t-163 -259t-205 -155.5t-207.5 -51q-76 0 -144.5 32.5t-119 99.5t-79 167t-28.5 235z" />
<glyph unicode="H" horiz-adv-x="905" d="M18 -4q53 283 105 555q18 115 40.5 238.5t43 244.5t39 234.5t33.5 208.5l331 22q-35 -143 -68.5 -299t-62.5 -303l203 23q29 145 51.5 281t59.5 282q47 8 104 13t106.5 9t82.5 7l34 4q-29 -92 -54.5 -202t-50 -227.5t-47 -238.5t-40.5 -230q-45 -260 -84 -532l-320 -37 q27 123 47 240q20 98 42 204.5t34 182.5l-198 -19q-14 -78 -34 -180t-36 -194q-23 -111 -45 -222z" />
<glyph unicode="I" horiz-adv-x="409" d="M-12 2q25 88 49 195.5t50 225.5t49.5 238.5t45.5 233.5q51 262 101 539l319 51q-53 -274 -106 -539q-23 -113 -46.5 -233.5t-45 -239.5t-43 -230.5t-37.5 -201.5q-19 0 -72 -5t-110.5 -12.5l-103.5 -13.5t-50 -8z" />
<glyph unicode="J" horiz-adv-x="571" d="M-55 106l141 316q10 -20 40 -35.5t64 -15.5q25 0 44.5 41t34 95t22.5 111.5t12 92.5q39 199 74 396.5t82 393.5q92 8 181 25.5t179 42.5q-31 -104 -63.5 -237.5t-63 -272.5t-58.5 -273.5t-48 -240.5q-19 -90 -45.5 -187.5t-70.5 -176.5t-106.5 -131t-148.5 -52 q-57 0 -123.5 24.5t-146.5 83.5z" />
<glyph unicode="K" horiz-adv-x="946" d="M14 -2q61 287 115 557q20 117 43 242t42 247.5t34.5 238.5t23.5 210q47 -4 106.5 -7t110.5 -7q61 -4 123 -4q-2 -8 -6 -31t-10 -54.5t-13.5 -70.5t-15.5 -78q-16 -90 -37 -203l13 2q20 33 58 91.5t79 124t80 126t65 103.5q102 8 205 18t205 27q-96 -129 -186 -254 q-39 -53 -79 -110.5t-79 -113t-73 -106.5t-60 -94q45 -207 106.5 -399.5t124.5 -393.5q-47 2 -96 3t-96 1q-59 0 -114.5 -1t-115.5 -3q-18 133 -39.5 279.5t-40.5 279.5l-36 -43q-14 -61 -32 -151t-34 -174q-18 -98 -39 -203z" />
<glyph unicode="L" horiz-adv-x="618" d="M25 -4q12 92 28.5 204.5t38 233.5t43 244t43.5 235q51 268 109 547l358 47q-55 -238 -106 -463q-23 -96 -45.5 -199.5t-43 -201.5t-37 -190.5t-26.5 -163.5q51 4 109.5 5t103.5 1q2 -39 6 -77t9.5 -68.5t8.5 -54t5 -32.5q-16 0 -31.5 1.5t-32.5 1.5q-63 0 -134 -4.5 t-142.5 -12.5t-140 -21.5t-123.5 -31.5z" />
<glyph unicode="M" horiz-adv-x="1267" d="M-61 12q90 272 172 535q35 111 71.5 231.5t73.5 239.5t68.5 229.5t56.5 204.5q113 0 213 12.5t217 22.5q-6 -45 -13 -101.5t-16.5 -118t-19.5 -127t-24.5 -168t-39.5 -255.5h27q59 156 98 259t63.5 168.5t50.5 128t49.5 119t43.5 99.5q51 4 96 10t90.5 13.5t91.5 14.5 t101 17q-20 -119 -38.5 -243.5t-33 -248.5t-28 -245t-23.5 -229q-25 -254 -43 -496l-356 -64q0 10 3 55.5t8 111t14.5 145.5t18.5 159.5t19.5 154.5t20.5 128h-19q-29 -86 -63.5 -181t-70.5 -193.5t-70.5 -192.5t-61.5 -180q-72 -2 -123 -5.5t-119 -7.5l66 760h-31 q-4 -27 -20.5 -89t-38 -143t-46 -168t-46 -162t-35.5 -123t-17 -54z" />
<glyph unicode="N" horiz-adv-x="927" d="M12 -10q57 289 111 563q20 115 43.5 241t44 247.5t38 235.5t27.5 208q63 4 123 8q53 4 108.5 7t98.5 7q27 -158 47 -301q10 -61 21.5 -127.5t22 -128t20.5 -118t20 -99.5q8 43 18.5 99.5t23 119t25.5 128t25 126.5q31 143 64 299l250 31q-70 -307 -123 -582 q-25 -119 -48.5 -239.5t-44 -233t-34.5 -208t-23 -160.5q-6 0 -48 -9.5t-96 -21.5t-108.5 -25.5t-80.5 -21.5q-14 166 -31 315q-6 63 -14.5 131t-15.5 129.5t-14 115.5t-13 91q-6 -37 -16.5 -90t-21 -113.5t-20.5 -125t-22 -126.5q-27 -145 -58 -303z" />
<glyph unicode="O" horiz-adv-x="1009" d="M63 412q0 115 29 241.5t78 251.5t120.5 237.5t158 200t184.5 138.5t205 51q92 0 152.5 -38t94 -98.5t48 -136t14.5 -151.5q0 -168 -36 -316.5t-95.5 -272.5t-138 -221t-164.5 -166t-174 -104.5t-168 -35.5q-68 0 -123 25.5t-96 75.5t-65 129t-24 190zM369 465 q0 -23 8 -47.5t22.5 -43t36 -31.5t45.5 -13q92 0 164 63.5t119 155.5t72.5 196.5t25.5 190.5q0 25 -3 53.5t-12 53t-28.5 42t-52.5 17.5q-66 0 -121 -33t-99 -87t-77 -122.5t-56.5 -139.5t-33.5 -138.5t-10 -116.5z" />
<glyph unicode="P" horiz-adv-x="776" d="M-6 -2q61 276 117 541q23 111 47 233.5t46.5 241.5t43 229.5t35.5 202.5q59 18 116.5 31.5t118 23.5t113.5 10q92 0 154.5 -30.5t101.5 -82.5t55 -122t16 -150q0 -115 -42 -221t-112.5 -189t-161.5 -132t-189 -49h-23q-16 -70 -30.5 -152t-24.5 -152q-14 -82 -27 -163z M471 750q33 8 68.5 37.5t66.5 77.5t49.5 111.5t18.5 133.5q0 76 -34 115t-75 39q-22 -136 -44.5 -256.5t-49.5 -257.5z" />
<glyph unicode="Q" horiz-adv-x="1075" d="M63 412q0 115 29 241.5t78 251.5t120.5 237.5t158 200t184.5 138.5t205 51q92 0 152.5 -38t94 -98.5t48 -136t14.5 -151.5q0 -201 -49 -370t-127 -304l194 -229q-45 -59 -90 -115q-37 -47 -79 -99t-72 -89q-41 57 -85 116.5t-85 120.5l-11 17q-94 -80 -189 -122t-183 -42 q-68 0 -123 25.5t-96 75.5t-65 129t-24 190zM369 465q0 -23 8 -47.5t22.5 -43t36 -31.5t45.5 -13q72 0 131 39l-82 135q86 66 132.5 102.5t66.5 52.5q25 20 29 25l45 -51q27 76 43 155.5t16 147.5q0 25 -3 53.5t-12 53t-28.5 42t-52.5 17.5q-66 0 -121 -33t-99 -87 t-77 -122.5t-56.5 -139.5t-33.5 -138.5t-10 -116.5z" />
<glyph unicode="R" horiz-adv-x="909" d="M8 -2q55 272 107 532q18 111 40.5 231t42 237.5t37 227t27.5 199.5q117 37 252 54.5t268 17.5q80 0 132.5 -18.5t82 -52t42 -78.5t12.5 -101q0 -82 -29 -160.5t-77 -149.5t-110.5 -129t-134.5 -95q37 -82 79 -179.5t79 -185.5q41 -102 84 -205l-317 -110q-41 141 -74 266 q-14 51 -28.5 105.5t-27 102.5t-20.5 85t-10 57l-27 -8q-12 -66 -29.5 -160t-31.5 -182q-18 -104 -37 -215zM489 887q39 4 95.5 32.5t107.5 68.5t88 83t37 76q0 23 -14.5 36t-40 20t-56 9t-63.5 2q-23 0 -46.5 -1t-41.5 -1z" />
<glyph unicode="S" horiz-adv-x="880" d="M29 180l151 297q14 -27 43 -54.5t65 -48t71.5 -33.5t64.5 -13q25 0 51.5 8t49 24.5t35.5 38t13 50.5q0 49 -31.5 91t-78.5 79.5t-102.5 76.5t-101.5 82t-79 96.5t-33 118.5q0 106 63.5 198.5t159 159t208 105.5t213.5 39q55 0 104 -13.5t85 -43t57.5 -74.5t21.5 -113 q0 -29 -5 -57.5t-10 -60.5l-296 -86q4 16 7 32.5t3 32.5q0 61 -21.5 89t-56.5 28q-16 0 -40 -12.5t-47.5 -32t-39.5 -46t-16 -57.5q0 -49 27.5 -81.5t68.5 -61.5t89 -58.5t89 -76.5t68.5 -118t27.5 -179q0 -115 -44 -208t-118.5 -160.5t-176 -104.5t-218.5 -37 q-82 0 -164 44t-157 140z" />
<glyph unicode="T" horiz-adv-x="741" d="M184 -2q47 225 90 444q18 92 37 192.5t36.5 198t30.5 188.5t23 167q-35 4 -71 4h-24h-12q-42 0 -83 12q2 33 2 76t2 86q2 47 4 100q53 -4 106.5 -6t106.5 -2q104 0 201.5 5t180.5 12.5t163 17.5l-23 -111q-10 -47 -19 -96t-17 -84q-45 -12 -91.5 -17t-91.5 -14 q-14 -70 -30.5 -154.5t-32 -175.5t-29.5 -185.5t-29 -180.5q-33 -203 -61 -420z" />
<glyph unicode="U" horiz-adv-x="858" d="M63 213v16.5t3 16.5q8 84 26.5 202.5t39 247.5t45 259t44 236.5t33.5 177.5t18 87q43 4 102.5 10.5t110.5 10.5q63 6 125 12q-53 -248 -94 -449q-18 -86 -35.5 -172t-33 -157.5t-26.5 -123.5t-18.5 -85t-16.5 -83t-9 -91q0 -33 16.5 -54.5t40.5 -21.5q35 0 57.5 27.5 t38 66.5t22.5 79t13 62q12 59 27.5 132t31 152t31 161t29.5 160q35 180 68 372l311 21l-11 -53q-10 -54 -26 -142t-35.5 -200.5t-44 -234.5t-48.5 -239.5t-46 -216.5q-29 -116 -81 -198t-122.5 -135.5t-150.5 -78t-160 -24.5q-47 0 -96 15.5t-88 46t-65 78t-26 110.5z" />
<glyph unicode="V" horiz-adv-x="776" d="M121 -18q27 287 49 563q10 115 19.5 241.5t16.5 250.5t11 240t6 212q49 0 105.5 2t102.5 4t79 5l33 3q-23 -238 -39.5 -390t-25.5 -247.5t-16 -183.5t-15.5 -164t-14.5 -129h37l229 1090q55 2 113 6q51 4 107.5 6t103.5 8q-29 -90 -58.5 -198.5t-61.5 -225.5 t-61.5 -237.5t-58.5 -233.5q-66 -264 -131 -543z" />
<glyph unicode="W" horiz-adv-x="1230" d="M84 -8l156 1454q96 4 181 19.5t169 21.5q0 -2 -6 -42t-16.5 -104.5t-23 -145.5t-36 -222.5t-62.5 -390.5h31q53 188 88 308t56.5 194.5t41 144t37 129t27.5 100.5h18q37 0 75 4t72 9.5t71 13.5q-4 -18 -9.5 -75.5t-13.5 -138.5t-16.5 -178.5t-16.5 -190.5t-15 -177 t-13 -143h36l195 880q70 10 137 19q59 8 123 16t113 19q-31 -86 -61.5 -191.5t-63.5 -222.5t-62.5 -235.5t-58.5 -229.5q-66 -262 -127 -539l-463 -78l90 791h-24l-203 -743z" />
<glyph unicode="X" horiz-adv-x="841" d="M-74 18q102 182 204.5 360.5t188.5 373.5q-12 92 -23 163.5t-25.5 141t-31 140.5t-32.5 161l328 135q10 -96 23 -213t24 -215q47 102 93 204.5t95 203.5l297 -80q-53 -90 -96 -166t-82 -152t-78 -154.5t-84 -175.5q12 -90 28.5 -169.5t36 -157.5t39 -157t41.5 -167 q-4 -2 -28.5 -8t-61.5 -16.5t-81 -22.5t-86 -24.5t-78.5 -23.5t-57.5 -19q-6 82 -10 159q-4 68 -9 135.5t-7 112.5q-18 -45 -48 -112.5t-59 -133.5q-35 -76 -72 -153z" />
<glyph unicode="Y" horiz-adv-x="786" d="M158 31l94 411q0 88 -3 191.5t-9.5 208t-12.5 202t-10 172t-8 119.5l-4 45l334 127v-250v-104t-1 -104.5t-1 -96.5v-75q27 70 64.5 172t70.5 198q39 113 80 238l317 -72q-88 -176 -172 -350q-35 -76 -74 -157t-77.5 -161.5t-75.5 -156.5t-68 -142q-10 -53 -25.5 -116.5 t-29.5 -120.5q-18 -68 -39 -135z" />
<glyph unicode="Z" horiz-adv-x="882" d="M16 18l2 299l582 793q-35 0 -98.5 -7t-128 -15.5t-111.5 -16.5l-49 -4l39 322l838 59l-54 -283l-559 -794q41 0 109.5 4t142.5 8t160 10l-6 -311q-19 0 -78.5 -2t-140 -6t-175 -10.5t-184.5 -13.5t-167 -15t-122 -17z" />
<glyph unicode="[" horiz-adv-x="653" d="M43 -10q59 262 115 534q25 117 50 245t51 258t49.5 261t45.5 254h13q18 0 43.5 1t53.5 3t60 4q74 2 146 9q61 4 131.5 12t128.5 20q-14 -59 -29.5 -120.5t-28.5 -120.5q-27 -2 -52 -2h-54h-113q-23 -123 -41 -219.5t-33.5 -178.5t-28.5 -156.5t-27.5 -156.5t-32 -179.5 t-35.5 -221.5q25 0 60.5 4t67 9t53 10t21.5 7l-51 -215q-121 -14 -263 -28.5t-300 -32.5z" />
<glyph unicode="\" horiz-adv-x="1044" d="M260 1479h2q4 0 13.5 1t19.5 3t24 4q55 8 105 16q43 8 87 18.5t73 22.5q35 -121 72.5 -259t75.5 -281.5t76 -283.5t71.5 -264t63.5 -225.5t50 -164.5q-12 -4 -46 -11.5t-66 -11.5q-41 -8 -86 -14q-23 -4 -45 -9q-21 -4 -43.5 -9t-44.5 -9q-47 182 -96.5 359.5 t-98.5 357.5t-101.5 368.5t-105.5 391.5z" />
<glyph unicode="]" horiz-adv-x="641" d="M-41 -59q4 45 10 90q4 37 11.5 78t13.5 73q27 6 71 14.5t85 14.5q51 6 104 14l186 1047l-233 -27l16 238l596 76q-57 -258 -110 -527q-25 -115 -49.5 -241.5t-50 -259t-48 -265.5t-41.5 -256l-48 -6t-75 -9t-92 -11.5t-96 -12.5q-115 -14 -250 -30z" />
<glyph unicode="^" horiz-adv-x="745" d="M121 1249q86 129 147.5 274.5t130.5 286.5q29 -2 54.5 -2h54.5q59 0 118.5 2t121.5 7q-6 -35 -7.5 -70t-1.5 -72q0 -112 17.5 -222t54.5 -212q-74 8 -146.5 13.5t-146.5 5.5q-2 41 -2 78.5v74.5v133q-23 -74 -43 -147.5t-45 -145.5q-29 2 -55.5 2h-50.5q-100 0 -201 -6z " />
<glyph unicode="_" horiz-adv-x="821" d="M-109 -221q10 23 18.5 60.5t14.5 76.5q8 41 15 90q94 -2 171.5 -4t152.5 -2h122q104 0 206.5 2t207.5 6q-11 -31 -19 -70.5t-15 -78.5t-11 -82q-96 0 -178 2t-163 3t-134 1q-96 0 -193.5 -1t-194.5 -3z" />
<glyph unicode="`" horiz-adv-x="733" d="M100 1319q12 59 28.5 144t31.5 165q18 94 36 193q80 -86 160 -168q68 -72 144.5 -154t134.5 -147l-15 -166q-104 25 -200 49q-84 18 -172 41.5t-148 42.5z" />
<glyph unicode="a" d="M-43 12q82 272 162 537q33 111 68.5 231.5t71.5 240.5t68.5 230.5t57.5 202.5q139 10 283.5 24.5t281.5 39.5q-6 -66 -13 -163.5t-13 -212t-12.5 -239.5t-12.5 -246q-10 -283 -22 -600q-61 -10 -123 -16q-52 -8 -113 -18.5t-111 -18.5q8 68 17 133q6 57 11 114.5t9 98.5 h-178l-82 -295q-45 -6 -106.5 -13t-114.5 -13q-66 -8 -129 -17zM438 555q8 0 29.5 1t45.5 2t44.5 2t28.5 3q0 12 3 42t6 68t7 83t8 88q8 104 21 225l12 178l-31 -2l-47 -176z" />
<glyph unicode="b" horiz-adv-x="876" d="M-2 4q98 358 156.5 722t111.5 732q106 23 221 40.5t238 17.5q51 0 108.5 -12.5t104.5 -45.5t79 -86t32 -135q0 -78 -26 -145.5t-65.5 -123t-91 -95t-104.5 -60.5q27 -14 55.5 -41t53 -62.5t40 -85t15.5 -110.5q0 -84 -35 -155.5t-94.5 -130t-138 -102.5t-165.5 -73.5 t-178.5 -45t-175.5 -15.5q-76 0 -141 12zM399 406q39 4 88.5 14t94.5 31.5t75.5 57.5t30.5 87q0 37 -19.5 61.5t-49 41t-64.5 23.5t-66 7h-17t-15 -2q-8 -49 -15.5 -87t-13.5 -73t-13 -72.5t-16 -88.5zM504 981q45 8 90 22.5t81 32t57.5 38t21.5 44.5q0 31 -18.5 50.5 t-48.5 31.5t-61.5 17.5t-56.5 5.5h-20q-4 -23 -9 -53.5t-11.5 -64.5t-13.5 -66.5t-11 -57.5z" />
<glyph unicode="c" horiz-adv-x="847" d="M80 449q0 193 53 380t149.5 336.5t228.5 240.5t292 91q49 0 94 -20.5t78 -57.5t52.5 -90t19.5 -119v-25.5t-3 -27.5l-268 -72q-25 51 -57 52q-33 0 -69 -38t-70.5 -98.5t-67.5 -135t-57.5 -150.5t-40 -144.5t-15.5 -111.5q0 -66 17.5 -92.5t46.5 -26.5q23 0 51.5 17.5 t53 45t45 62.5t28.5 70l233 -95q-49 -112 -109 -195t-127 -139.5t-134.5 -83t-130.5 -26.5t-115.5 28.5t-91.5 86t-62.5 141.5t-23.5 197z" />
<glyph unicode="d" horiz-adv-x="903" d="M8 0q55 283 109 551q20 113 42.5 234.5t43 240.5t40 227.5t31.5 196.5q88 16 178.5 30.5t184.5 14.5q111 0 187.5 -35t124.5 -96t70.5 -143t22.5 -174q0 -107 -30.5 -227t-86 -237.5t-136 -225t-183 -188.5t-224.5 -130t-259 -49q-29 0 -57.5 3t-57.5 7zM367 248 q49 33 95 89t87 130t74.5 156t58.5 159.5t38 145t13 116.5q0 76 -42 119t-132 43q-22 -121 -47 -231.5t-49.5 -223t-49 -235.5t-46.5 -268z" />
<glyph unicode="e" horiz-adv-x="698" d="M16 -2l269 1456l647 55q-14 -45 -25 -92q-10 -39 -19 -81t-16 -74q-20 -2 -58 -3.5t-81 -2.5t-87 -1h-77l-71 -366q63 4 118 6q45 2 92.5 2t69.5 2q-8 -57 -15 -112.5t-18 -112.5q-20 -2 -66 -3t-93 -3q-53 -2 -117 -4l-70 -377l299 47l-20 -234z" />
<glyph unicode="f" horiz-adv-x="698" d="M8 -2q25 88 48.5 197.5t47 230.5t45 245t41.5 238q43 272 86 564l687 34l-60 -252h-321l-64 -364q63 2 121 2h96t76 2q-6 -57 -15.5 -112.5t-17.5 -110.5q-27 0 -76 1t-101 3t-118 4l-94 -604q-70 -12 -137 -27q-57 -10 -125 -24.5t-119 -26.5z" />
<glyph unicode="g" horiz-adv-x="1021" d="M86 485q0 264 76 461t191.5 328t247.5 194.5t247 63.5q82 0 142.5 -28.5t99 -77t56 -113t17.5 -135.5l-280 -54q-18 82 -49 117t-70 35q-51 0 -112.5 -73t-115 -187.5t-90 -251.5t-40.5 -270q0 -127 37.5 -181.5t97.5 -54.5q41 0 85 20.5t78.5 58.5t58 88t25.5 110 l-219 -33l39 203q96 12 189 24q78 10 165 24.5t152 26.5q-14 -209 -81.5 -363.5t-163 -259t-205 -155.5t-207.5 -51q-76 0 -144.5 32.5t-119 99.5t-79 167t-28.5 235z" />
<glyph unicode="h" horiz-adv-x="903" d="M16 -4q57 287 111 559q20 117 43 243t42 248.5t36.5 238.5t27.5 210q47 -2 87 -5t79 -5t79 -3t87 -1q-35 -145 -68.5 -291t-62.5 -293l203 23q29 145 51.5 281t59.5 282q47 8 104 13t106.5 9t82.5 7l34 4q-29 -92 -54.5 -202t-50 -227.5t-47 -238.5t-40.5 -230 q-45 -260 -84 -532l-320 -37q27 123 47 240q20 98 42 204.5t34 182.5l-199 -19q-14 -78 -33.5 -180t-35.5 -194q-23 -111 -45 -222z" />
<glyph unicode="i" horiz-adv-x="413" d="M10 2q20 88 42 195.5t44.5 225.5t43 238.5t38.5 233.5q43 262 86 539l320 51q-47 -274 -92 -539q-18 -113 -38 -233.5t-39.5 -239.5t-36 -230.5t-30.5 -201.5q-18 0 -72.5 -5t-112 -12.5l-103.5 -13.5t-50 -8z" />
<glyph unicode="j" horiz-adv-x="571" d="M-55 106l141 316q10 -20 40 -35.5t64 -15.5q25 0 44.5 41t34 95t22.5 111.5t12 92.5q39 199 74 396.5t82 393.5q92 8 181 25.5t179 42.5q-31 -104 -63.5 -237.5t-63 -272.5t-58.5 -273.5t-48 -240.5q-19 -90 -45.5 -187.5t-70.5 -176.5t-106.5 -131t-148.5 -52 q-57 0 -123.5 24.5t-146.5 83.5z" />
<glyph unicode="k" horiz-adv-x="946" d="M14 -2q61 287 115 557q20 117 43 242t42 247.5t34.5 238.5t23.5 210q47 -4 106.5 -7t110.5 -7q61 -4 123 -4q-2 -8 -6 -31t-10 -54.5t-13.5 -70.5t-15.5 -78q-16 -90 -37 -203l13 2q20 33 58 91.5t79 124t80 126t65 103.5q102 8 205 18t205 27q-96 -129 -186 -254 q-39 -53 -79 -110.5t-79 -113t-73 -106.5t-60 -94q45 -207 106.5 -399.5t124.5 -393.5q-47 2 -96 3t-96 1q-59 0 -114.5 -1t-115.5 -3q-18 133 -39.5 279.5t-40.5 279.5l-36 -43q-14 -61 -32 -151t-34 -174q-18 -98 -39 -203z" />
<glyph unicode="l" horiz-adv-x="618" d="M25 -4q12 92 28.5 204.5t38 233.5t43 244t43.5 235q51 268 109 547l358 47q-55 -238 -106 -463q-23 -96 -45.5 -199.5t-43 -201.5t-37 -190.5t-26.5 -163.5q51 4 109.5 5t103.5 1q2 -39 6 -77t9.5 -68.5t8.5 -54t5 -32.5q-16 0 -31.5 1.5t-32.5 1.5q-63 0 -134 -4.5 t-142.5 -12.5t-140 -21.5t-123.5 -31.5z" />
<glyph unicode="m" horiz-adv-x="1267" d="M-61 12q90 272 172 535q35 111 71.5 231.5t73.5 239.5t68.5 229.5t56.5 204.5q113 0 213 12.5t217 22.5q-6 -45 -13 -101.5t-16.5 -118t-19.5 -127t-24.5 -168t-39.5 -255.5h27q59 156 98 259t63.5 168.5t50.5 128t49.5 119t43.5 99.5q51 4 96 10t90.5 13.5t91.5 14.5 t101 17q-20 -119 -38.5 -243.5t-33 -248.5t-28 -245t-23.5 -229q-25 -254 -43 -496l-356 -64q0 10 3 55.5t8 111t14.5 145.5t18.5 159.5t19.5 154.5t20.5 128h-19q-29 -86 -63.5 -181t-70.5 -193.5t-70.5 -192.5t-61.5 -180q-72 -2 -123 -5.5t-119 -7.5l66 760h-31 q-4 -27 -20.5 -89t-38 -143t-46 -168t-46 -162t-35.5 -123t-17 -54z" />
<glyph unicode="n" horiz-adv-x="925" d="M10 -10q61 295 117 571q20 119 44 246t44.5 251t36.5 237.5t24 205.5q27 -2 45.5 -2h43.5q29 0 69.5 1t81.5 3t88 4q29 -143 51 -276q23 -117 46.5 -240t41.5 -209q8 41 18.5 95.5t23 114t23.5 119.5t23 120q29 133 60 274l250 31q-70 -313 -123 -594 q-25 -121 -48.5 -245t-44 -237.5t-34.5 -210.5t-23 -163q-6 0 -48 -9t-96 -21.5t-108.5 -25t-80.5 -22.5q-12 164 -27 311q-6 63 -13.5 130t-15.5 128.5t-16 114.5t-17 92q-6 -39 -16 -90t-20.5 -108.5t-20.5 -120t-22 -119.5q-27 -137 -58 -287z" />
<glyph unicode="o" horiz-adv-x="1009" d="M63 412q0 115 29 241.5t78 251.5t120.5 237.5t158 200t184.5 138.5t205 51q92 0 152.5 -38t94 -98.5t48 -136t14.5 -151.5q0 -168 -36 -316.5t-95.5 -272.5t-138 -221t-164.5 -166t-174 -104.5t-168 -35.5q-68 0 -123 25.5t-96 75.5t-65 129t-24 190zM369 465 q0 -23 8 -47.5t22.5 -43t36 -31.5t45.5 -13q92 0 164 63.5t119 155.5t72.5 196.5t25.5 190.5q0 25 -3 53.5t-12 53t-28.5 42t-52.5 17.5q-66 0 -121 -33t-99 -87t-77 -122.5t-56.5 -139.5t-33.5 -138.5t-10 -116.5z" />
<glyph unicode="p" horiz-adv-x="776" d="M-6 -2q61 276 117 541q23 111 47 233.5t46.5 241.5t43 229.5t35.5 202.5q59 18 116.5 31.5t118 23.5t113.5 10q92 0 154.5 -30.5t101.5 -82.5t55 -122t16 -150q0 -115 -42 -221t-112.5 -189t-161.5 -132t-189 -49h-23q-16 -70 -30.5 -152t-24.5 -152q-14 -82 -27 -163z M471 750q33 8 68.5 37.5t66.5 77.5t49.5 111.5t18.5 133.5q0 76 -34 115t-75 39q-22 -136 -44.5 -256.5t-49.5 -257.5z" />
<glyph unicode="q" horiz-adv-x="1075" d="M63 412q0 115 29 241.5t78 251.5t120.5 237.5t158 200t184.5 138.5t205 51q92 0 152.5 -38t94 -98.5t48 -136t14.5 -151.5q0 -201 -49 -370t-127 -304l194 -229q-45 -59 -90 -115q-37 -47 -79 -99t-72 -89q-41 57 -85 116.5t-85 120.5l-11 17q-94 -80 -189 -122t-183 -42 q-68 0 -123 25.5t-96 75.5t-65 129t-24 190zM369 465q0 -23 8 -47.5t22.5 -43t36 -31.5t45.5 -13q72 0 131 39l-82 135q86 66 132.5 102.5t66.5 52.5q25 20 29 25l45 -51q27 76 43 155.5t16 147.5q0 25 -3 53.5t-12 53t-28.5 42t-52.5 17.5q-66 0 -121 -33t-99 -87 t-77 -122.5t-56.5 -139.5t-33.5 -138.5t-10 -116.5z" />
<glyph unicode="r" horiz-adv-x="909" d="M8 -2q55 272 107 532q18 111 40.5 231t42 237.5t37 227t27.5 199.5q117 37 252 54.5t268 17.5q80 0 132.5 -18.5t82 -52t42 -78.5t12.5 -101q0 -82 -29 -160.5t-77 -149.5t-110.5 -129t-134.5 -95q37 -82 79 -179.5t79 -185.5q41 -102 84 -205l-317 -110q-41 131 -74 246 q-14 47 -28.5 97t-27 95t-20.5 81t-10 58l-27 -8q-12 -66 -29.5 -154t-31.5 -169q-18 -96 -37 -195zM489 887q39 4 95.5 32.5t107.5 68.5t88 83t37 76q0 23 -14.5 36t-40 20t-56 9t-63.5 2q-23 0 -46.5 -1t-41.5 -1z" />
<glyph unicode="s" horiz-adv-x="880" d="M29 180l151 297q14 -27 43 -54.5t65 -48t71.5 -33.5t64.5 -13q25 0 51.5 8t49 24.5t35.5 38t13 50.5q0 49 -31.5 91t-78.5 79.5t-102.5 76.5t-101.5 82t-79 96.5t-33 118.5q0 106 63.5 198.5t159 159t208 105.5t213.5 39q55 0 104 -13.5t85 -43t57.5 -74.5t21.5 -113 q0 -29 -5 -57.5t-10 -60.5l-296 -86q4 16 7 32.5t3 32.5q0 61 -21.5 89t-56.5 28q-16 0 -40 -12.5t-47.5 -32t-39.5 -46t-16 -57.5q0 -49 27.5 -81.5t68.5 -61.5t89 -58.5t89 -76.5t68.5 -118t27.5 -179q0 -115 -44 -208t-118.5 -160.5t-176 -104.5t-218.5 -37 q-82 0 -164 44t-157 140z" />
<glyph unicode="t" horiz-adv-x="741" d="M184 -2q47 225 90 444q18 92 37 192.5t36.5 198t30.5 188.5t23 167q-35 4 -71 4h-24h-12q-42 0 -83 12q2 33 2 76t2 86q2 47 4 100q53 -4 106.5 -6t106.5 -2q104 0 201.5 5t180.5 12.5t163 17.5l-23 -111q-10 -47 -19 -96t-17 -84q-45 -12 -91.5 -17t-91.5 -14 q-14 -70 -30.5 -154.5t-32 -175.5t-29.5 -185.5t-29 -180.5q-33 -203 -61 -420z" />
<glyph unicode="u" horiz-adv-x="858" d="M63 213v16.5t3 16.5q8 84 26.5 202.5t39 247.5t45 259t44 236.5t33.5 177.5t18 87q43 4 102.5 10.5t110.5 10.5q63 6 125 12q-53 -248 -94 -449q-18 -86 -35.5 -172t-33 -157.5t-26.5 -123.5t-18.5 -85t-16.5 -83t-9 -91q0 -33 16.5 -54.5t40.5 -21.5q35 0 57.5 27.5 t38 66.5t22.5 79t13 62q12 59 27.5 132t31 152t31 161t29.5 160q35 180 68 372l311 21l-11 -53q-10 -54 -26 -142t-35.5 -200.5t-44 -234.5t-48.5 -239.5t-46 -216.5q-29 -116 -81 -198t-122.5 -135.5t-150.5 -78t-160 -24.5q-47 0 -96 15.5t-88 46t-65 78t-26 110.5z" />
<glyph unicode="v" horiz-adv-x="776" d="M121 -18q27 287 49 563q10 115 19.5 241.5t16.5 250.5t11 240t6 212q49 0 105.5 2t102.5 4t79 5l33 3q-23 -238 -39.5 -390t-25.5 -247.5t-16 -183.5t-15.5 -164t-14.5 -129h37l229 1090q55 2 113 6q51 4 107.5 6t103.5 8q-29 -90 -58.5 -198.5t-61.5 -225.5 t-61.5 -237.5t-58.5 -233.5q-66 -264 -131 -543z" />
<glyph unicode="w" horiz-adv-x="1230" d="M84 -8l156 1454q96 4 181 19.5t169 21.5q0 -2 -6 -42t-16.5 -104.5t-23 -145.5t-36 -222.5t-62.5 -390.5h31q53 188 88 308t56.5 194.5t41 144t37 129t27.5 100.5h18q37 0 75 4t72 9.5t71 13.5q-4 -18 -9.5 -75.5t-13.5 -138.5t-16.5 -178.5t-16.5 -190.5t-15 -177 t-13 -143h36l195 880q70 10 137 19q59 8 123 16t113 19q-31 -86 -61.5 -191.5t-63.5 -222.5t-62.5 -235.5t-58.5 -229.5q-66 -262 -127 -539l-463 -78l90 791h-24l-203 -743z" />
<glyph unicode="x" horiz-adv-x="841" d="M-74 18q102 182 204.5 360.5t188.5 373.5q-12 92 -23 163.5t-25.5 141t-31 140.5t-32.5 161l328 135q10 -96 23 -213t24 -215q47 102 93 204.5t95 203.5l297 -80q-53 -90 -96 -166t-82 -152t-78 -154.5t-84 -175.5q12 -90 28.5 -169.5t36 -157.5t39 -157t41.5 -167 q-4 -2 -28.5 -8t-61.5 -16.5t-81 -22.5t-86 -24.5t-78.5 -23.5t-57.5 -19q-6 82 -10 159q-4 68 -9 135.5t-7 112.5q-18 -45 -48 -112.5t-59 -133.5q-35 -76 -72 -153z" />
<glyph unicode="y" horiz-adv-x="786" d="M158 31l94 411q0 88 -3 191.5t-9.5 208t-12.5 202t-10 172t-8 119.5l-4 45l334 127v-250v-104t-1 -104.5t-1 -96.5v-75q27 70 64.5 172t70.5 198q39 113 80 238l317 -72q-88 -176 -172 -350q-35 -76 -74 -157t-77.5 -161.5t-75.5 -156.5t-68 -142q-10 -53 -25.5 -116.5 t-29.5 -120.5q-18 -68 -39 -135z" />
<glyph unicode="z" horiz-adv-x="882" d="M16 18l2 299l582 793q-35 0 -98.5 -7t-128 -15.5t-111.5 -16.5l-49 -4l39 322l838 59l-54 -283l-559 -794q41 0 109.5 4t142.5 8t160 10l-6 -311q-19 0 -78.5 -2t-140 -6t-175 -10.5t-184.5 -13.5t-167 -15t-122 -17z" />
<glyph unicode="{" horiz-adv-x="575" d="M70 684l36 236h17q72 0 105.5 30.5t52 80.5t31 113.5t43 127t91 123t172.5 102.5l117 -301q-72 -6 -110.5 -34.5t-60 -68.5t-34 -87.5t-30 -90.5t-48 -77.5t-90.5 -51.5q37 -14 59.5 -38.5t35 -58.5t14.5 -71.5t2 -72.5v-74q0 -25 12.5 -50.5t31 -47t41 -38t46.5 -24.5 l-108 -297q-55 29 -104.5 69t-85.5 89t-56.5 111.5t-20.5 136.5q0 45 -4 90t-18 82t-47 61.5t-90 30.5z" />
<glyph unicode="|" horiz-adv-x="507" d="M45 -39q20 88 45 203t49.5 241.5t49 260t47.5 256.5q53 293 106 606l313 24q-57 -307 -108 -591q-23 -123 -46.5 -254.5t-45 -257t-40 -241.5t-30.5 -208q-18 0 -72.5 -5t-113 -12.5t-104.5 -13.5t-50 -8z" />
<glyph unicode="}" horiz-adv-x="559" d="M39 293q31 6 65.5 17.5t66.5 31.5t53.5 51t27.5 78q4 39 14 84t27.5 87t47.5 75t71 49q-49 20 -69.5 62t-26 93.5t-3.5 106.5t-7 103.5t-38.5 82t-93.5 41.5l182 242q70 -31 111 -71t62.5 -85t26.5 -92t5 -94q0 -27 -1 -53.5t-1 -48.5q0 -35 4 -61.5t18.5 -48t40 -33 t68.5 -11.5h17l-31 -235q-47 -6 -82 -28t-57.5 -55.5t-36 -79.5t-21.5 -102q-10 -71 -48 -135.5t-92 -116t-126 -86t-152 -47.5z" />
<glyph unicode="~" horiz-adv-x="831" d="M139 1014q2 0 10.5 28.5t26 72.5t44 94.5t65.5 94.5t92 73.5t121 29.5q57 0 99 -27.5t72.5 -58.5t55.5 -57.5t47 -26.5q25 0 49.5 38t57.5 138q78 -37 122 -61q27 -14 48 -29q-20 -111 -66 -197q-16 -39 -43 -73.5t-59.5 -62t-73.5 -45t-90 -17.5q-39 0 -76 27.5 t-73 61.5t-69.5 61.5t-66.5 27.5q-35 0 -64.5 -40t-58.5 -142q-39 18 -69.5 34.5t-55 28.5t-45.5 27z" />
<glyph horiz-adv-x="0" />
<glyph unicode="&#xa1;" horiz-adv-x="540" d="M-147 4q111 258 201.5 519t181.5 526q59 0 118.5 4t118.5 8q-63 -252 -123.5 -502t-126.5 -502q-39 -6 -89 -12t-101 -14t-99.5 -14.5t-80.5 -12.5zM215 1370q0 39 17.5 78t50 68.5t82 47t112.5 17.5q43 0 78 -16.5t56.5 -44t33.5 -62.5t12 -69q0 -39 -12 -75 t-37.5 -63.5t-63.5 -46t-91 -18.5q-119 0 -178.5 56t-59.5 128z" />
<glyph unicode="&#xa2;" horiz-adv-x="913" d="M113 449q0 168 42 334.5t116.5 308t180 243t234.5 142.5q4 31 8 58.5t8 47.5q4 25 9 45l192 4q-4 -14 -8 -37q-4 -16 -10 -42.5t-13 -59.5q90 -12 147.5 -88t57.5 -195v-25.5t-2 -27.5l-307 -90v23q0 18 -2 40.5t-6 44t-10.5 36t-16.5 14.5q-35 0 -69.5 -40t-69.5 -106.5 t-63.5 -149.5t-50 -168t-35 -165t-13.5 -137q0 -49 9.5 -77t29.5 -28q39 0 69.5 26t55.5 64.5t43 83.5t33 86l233 -94q-68 -186 -155.5 -303t-184.5 -174q-4 -39 -8 -88t-14 -113q-27 0 -54 -2q-20 -2 -45.5 -4t-58.5 -6t-46 -5t-15 -1q14 57 21 96t13 80 q-106 20 -175.5 133t-69.5 316z" />
<glyph unicode="&#xa3;" horiz-adv-x="821" d="M0 -4q4 31 12 76t19 86q10 51 20 104l51 21q29 8 63 39.5t64.5 80t56 105.5t44.5 119q-23 -2 -46.5 -2h-45.5h-48l62 266q18 -2 35 -2q12 -2 25.5 -2h23.5q-39 156 -39 266q0 96 34 162.5t89 107.5t128 58.5t146 17.5q76 0 145.5 -15.5t125.5 -43.5q-12 -45 -26.5 -96.5 t-27.5 -94.5q-14 -49 -26 -96q-27 14 -78 30.5t-102 16.5q-49 0 -85 -27.5t-36 -105.5q0 -35 15 -85t24 -95h76.5t69.5 2t60 4l-32 -270q-27 0 -56 2q-23 2 -54.5 2t-63.5 2q0 -33 -7.5 -77t-24 -91t-43 -93t-65.5 -79q31 2 69 3t78 3t77.5 3t66.5 1q-4 -66 -8 -124t-4 -91 q0 -6 1 -11t1 -10q-25 0 -51.5 1.5t-50.5 1.5q-76 0 -163 -4.5t-174 -12.5t-171 -21.5t-154 -31.5z" />
<glyph unicode="&#xa4;" horiz-adv-x="878" d="M115 637q10 8 24 22q14 12 34 30t46 42q-6 25 -10 52.5t-4 56.5q0 96 38 198.5t105 186.5l-98 143q29 16 66.5 37.5t64.5 44.5q14 -29 24.5 -44t17.5 -28.5t15 -27t21 -29.5q51 41 113.5 65.5t125.5 24.5q96 0 160 -47l76 78q20 -29 52 -59.5t52 -51.5l-94 -90 q18 -66 19 -131q0 -98 -35 -195.5t-101 -181.5q29 -39 47.5 -65.5t28.5 -42.5q14 -20 23 -29l-129 -92q-4 2 -13 18q-10 14 -26.5 40t-46.5 79q-53 -37 -105.5 -57.5t-103.5 -20.5q-117 0 -189 47q-29 -29 -48 -46t-29 -27l-19 -19zM418 909q0 -59 28.5 -100t92.5 -41 q49 0 92 31.5t75.5 81t52 106.5t19.5 107q0 55 -25.5 92t-78.5 37q-61 0 -108.5 -31t-80 -78t-50 -101.5t-17.5 -103.5z" />
<glyph unicode="&#xa5;" horiz-adv-x="913" d="M96 219l47 170h146l10 53v66h-147l32 170q16 -2 33 -2q16 0 36.5 -1t43.5 -1q-4 127 -11 252t-16 227q-8 117 -18 227l334 127v-250v-104t-1 -104.5t-1 -96.5v-75q29 70 65.5 172t71.5 198q37 113 80 238l317 -72q-55 -117 -119 -242q-51 -106 -115.5 -236t-123.5 -257 q29 0 52.5 1t41.5 3t35 2l-68 -176h-143l-29 -62l-10 -59h162l-41 -166h-49h-52.5t-60.5 2q-10 -31 -17.5 -58.5t-13.5 -45.5q-8 -25 -12 -45l-348 -43l43 190q-35 0 -61.5 -1t-49.5 -1h-43z" />
<glyph unicode="&#xa6;" horiz-adv-x="497" d="M41 -39q27 121 60.5 286t68.5 345l313 49q-31 -178 -59.5 -346t-44.5 -295q-19 0 -73 -5t-112.5 -12.5t-104.5 -13.5t-48 -8zM221 872q25 133 45.5 252t34.5 209q18 106 35 195l313 24q-14 -86 -35 -190q-16 -90 -37.5 -206t-44.5 -249z" />
<glyph unicode="&#xa7;" horiz-adv-x="899" d="M45 86l92 244q45 -45 108.5 -75t123.5 -30q31 0 56.5 21.5t25.5 54.5q0 43 -49.5 94t-110 107.5t-109.5 119t-49 123.5q0 102 68.5 186.5t212.5 125.5q-66 96 -66 184q0 76 41 133.5t104.5 97t143.5 62t158 22.5q57 0 108 -13t90 -40.5t61.5 -70.5t22.5 -105 q0 -18 -4 -38.5t-6 -43.5l-256 -16q0 57 -23.5 78.5t-54.5 21.5q-37 0 -69.5 -24.5t-32.5 -59.5q0 -23 23.5 -44t60.5 -43.5t80 -50.5t79.5 -63.5t61.5 -83t25 -110.5q0 -106 -70 -184t-170 -129q27 -61 40 -115.5t13 -106.5q0 -82 -32.5 -147.5t-89 -110.5t-130 -69.5 t-155.5 -24.5q-78 0 -159 30t-163 93zM455 793q0 -29 23.5 -50.5t62.5 -46.5q33 10 56.5 41t23.5 86q0 23 -16.5 44.5t-45.5 43.5q-33 -4 -68.5 -36.5t-35.5 -81.5z" />
<glyph unicode="&#xa8;" horiz-adv-x="1058" d="M101 1626q0 35 11 67.5t33.5 57.5t57.5 41t82 16q100 0 148 -51t48 -115q0 -36 -13 -70t-42 -60.5t-69.5 -44t-92.5 -17.5q-82 0 -122.5 54.5t-40.5 121.5zM576 1626q0 35 11 67.5t33.5 57.5t58.5 41t83 16q98 0 147.5 -51t49.5 -115q0 -36 -14.5 -70t-42 -60.5 t-67.5 -44t-95 -17.5q-82 0 -123 54.5t-41 121.5z" />
<glyph unicode="&#xa9;" horiz-adv-x="1177" d="M123 565q0 104 20.5 218t64.5 223.5t110.5 208t153.5 172t200.5 116.5t249.5 43q98 0 166.5 -34.5t113.5 -97t66.5 -147.5t21.5 -184q0 -209 -72.5 -378.5t-184 -289.5t-245 -185.5t-251.5 -65.5q-90 0 -166 23.5t-131.5 72.5t-86 125t-30.5 180zM305 556q0 -17 2 -40.5 t19.5 -56.5t47 -59.5t68.5 -44t88 -17.5q129 0 239 70.5t189.5 178t123.5 229.5t44 224q0 145 -47 239.5t-147 94.5q-131 0 -228.5 -37t-167 -100t-113.5 -143t-70.5 -167t-37 -173t-10.5 -158v-40zM399 684q0 117 34 231.5t93.5 205.5t140.5 146.5t177 55.5q61 0 105 -46 t44 -126v-18.5t-2 -18.5l-186 -55v10q0 23 -4 53.5t-17 30.5q-33 0 -65.5 -52t-59 -127t-44 -156t-17.5 -134q0 -63 25 -63q20 0 39.5 15t35 39.5t26.5 52.5t19 52l146 -57q-62 -164 -146 -245t-165 -81q-76 0 -127.5 73t-51.5 214z" />
<glyph unicode="&#xaa;" d="M-43 12q82 272 162 537q33 111 68.5 231.5t71.5 240.5t68.5 230.5t57.5 202.5q139 10 283.5 24.5t281.5 39.5q-6 -66 -13 -163.5t-13 -212t-12.5 -239.5t-12.5 -246q-10 -283 -22 -600q-61 -10 -123 -16q-52 -8 -113 -18.5t-111 -18.5q8 68 17 133q6 57 11 114.5t9 98.5 h-178l-82 -295q-45 -6 -106.5 -13t-114.5 -13q-66 -8 -129 -17zM438 555q8 0 29.5 1t45.5 2t44.5 2t28.5 3q0 12 3 42t6 68t7 83t8 88q8 104 21 225l12 178l-31 -2l-47 -176z" />
<glyph unicode="&#xab;" horiz-adv-x="952" d="M88 469q27 139 46.5 276.5t39.5 276.5q63 55 144 110.5t153 102.5q84 51 172 98q-16 -68 -33 -137q-14 -59 -30.5 -130t-26.5 -130q-96 -63 -158.5 -100t-109.5 -76q57 -68 110.5 -136.5t110.5 -136.5q-25 -106 -45.5 -212.5t-46.5 -215.5q-84 104 -165 202.5t-161 207.5 zM549 469q25 139 45 276.5t41 276.5q63 55 144 110.5t153 102.5q84 51 172 98q-18 -68 -35 -137q-12 -59 -28.5 -130t-28.5 -130q-96 -63 -157.5 -100t-111.5 -76q59 -68 111.5 -136.5t112.5 -136.5q-25 -106 -46.5 -212.5t-46.5 -215.5q-84 104 -164.5 202.5t-160.5 207.5z " />
<glyph unicode="&#xac;" horiz-adv-x="817" d="M137 799l39 182q156 2 297 6q61 2 125 4t123 3t111.5 3t89.5 4q-23 -82 -43.5 -163.5t-36.5 -149.5q-20 -80 -35 -153l-322 -37q12 51 27 102q12 43 26.5 95.5t26.5 103.5h-428z" />
<glyph unicode="&#xad;" horiz-adv-x="737" d="M84 489l98 363q55 -2 105.5 -4t101.5 -3t86 -1q43 0 102.5 1t118 3t121.5 6l-69 -367q-72 2 -136.5 4.5t-131 3.5t-111.5 1q-37 0 -85 -1t-97.5 -3.5t-102.5 -2.5z" />
<glyph unicode="&#xae;" horiz-adv-x="1101" d="M133 635q0 96 20.5 201.5t60.5 208t101.5 192.5t144.5 159.5t186.5 109.5t232.5 40q90 0 154.5 -32.5t106.5 -91t62.5 -137.5t20.5 -169q0 -196 -69 -354t-171 -269.5t-226 -172t-237 -60.5q-84 0 -154.5 21.5t-121.5 66.5t-81 117t-30 170zM305 606.5q0 -24.5 10 -51.5 q14 53 35 132t41.5 168t41 180t34.5 167q-49 -59 -80 -128.5t-49.5 -141.5t-25.5 -141.5t-7 -131.5v-52.5zM352 494q29 -31 70 -52.5t92 -21.5q80 0 150.5 28.5t134.5 81.5l-113 -30q-18 70 -33 133q-12 51 -22 103t-13 75l-34 -6q-10 -35 -20.5 -82t-20.5 -90 q-12 -53 -27 -105zM518 1255q70 14 147.5 21.5t149.5 7.5q66 0 108 -10t65.5 -25.5t32.5 -39t9 -50.5q0 -90 -66.5 -169t-164.5 -120q20 -59 44.5 -130.5t41.5 -123.5q88 104 136 229.5t48 227.5q0 70 -10 126t-32.5 98t-56.5 65.5t-81 23.5q-125 0 -216 -35.5t-155 -95.5z M621 956q20 2 56 14.5t68.5 32t55 44t22.5 53.5q0 20 -26.5 26.5t-61.5 6.5q-20 0 -37.5 -1.5t-33.5 -1.5z" />
<glyph unicode="&#xaf;" horiz-adv-x="1001" d="M100 1624v82q0 20 2 37l766 65l33 -331q-162 -10 -310 -19q-63 -4 -129.5 -8t-130 -9t-120 -10.5t-97.5 -9.5q-10 35 -12 92.5t-2 110.5z" />
<glyph unicode="&#xb0;" horiz-adv-x="487" d="M201 1280q0 45 14 90t46 81t79 57.5t113 21.5q61 0 107 -18.5t76 -50t45 -73.5t15 -85q0 -50 -18.5 -97t-53 -84t-86 -59.5t-116.5 -22.5q-53 0 -95 19.5t-71 54.5t-42 78t-13 88zM342 1296q0 -43 26.5 -78.5t80.5 -35.5q66 0 98.5 40t32.5 87q0 41 -30 72.5t-89 31.5 t-89 -36t-30 -81z" />
<glyph unicode="&#xb1;" horiz-adv-x="751" d="M25 86l45 197q59 -2 114 -2q45 -2 96.5 -2h90.5h100t117.5 2t126.5 4l-17 -201q-76 0 -145 2q-61 0 -127 1t-115 1q-35 0 -84 -1t-96 -1h-106zM131 582q4 45 9 88t11.5 88t16.5 84q6 0 13 -1t16 -1q23 0 52.5 1t57 3t58.5 6l14 70q6 31 13 65.5t14 67.5q66 2 130 5 t128 11q-10 -33 -20.5 -70.5t-20.5 -72.5q-10 -37 -21 -76q31 2 62 6q27 4 55.5 6t50.5 6q-23 -80 -37 -144.5t-31 -143.5q-23 0 -50 1t-56 1q-33 0 -64 2q-2 -33 -8 -70q-4 -31 -10 -66.5t-14 -66.5l-248 -4q10 31 20.5 67.5t16.5 67.5l12 70h-170z" />
<glyph unicode="&#xb2;" horiz-adv-x="890" d="M86 385l35 201q8 49 53 98t110.5 99.5t139.5 99.5t136.5 93t103.5 82t41 68q0 45 -24 72t-56 27q-37 0 -59.5 -12.5t-37 -31t-20.5 -41t-6 -42.5v-19q0 -4 2 -6q-45 -4 -98 -6q-43 -4 -97.5 -9t-105.5 -9q-2 12 -3 24t-1 25q0 94 42 166.5t109.5 124t152.5 78t169 26.5 q74 0 144.5 -19.5t121.5 -58.5t84 -98.5t33 -140.5q0 -78 -46 -152t-127 -143.5t-192.5 -135t-238.5 -127.5q43 0 114.5 2.5t146 6.5t162.5 8l-34 -229q-39 -2 -92.5 -3.5t-115 -3.5t-125 -3t-122.5 -3q-143 -4 -299 -8z" />
<glyph unicode="&#xb3;" horiz-adv-x="819" d="M98 514q0 41 17 82l327 16q0 -33 13.5 -46t31.5 -13t41 10t40.5 28.5t29.5 41t12 47.5q0 41 -44 72.5t-142 31.5q-74 0 -144.5 -8t-117.5 -12l33 240q68 37 140.5 79.5t133.5 79.5q74 45 141 86l-383 -6l23 242q156 6 291 10q55 2 114.5 4t109.5 4t92 3t67 1l-43 -344 l-314 -172q90 -12 153.5 -39.5t103.5 -63.5t57.5 -80t17.5 -89q0 -76 -42 -151.5t-112.5 -136t-164 -99.5t-195.5 -39q-125 0 -206 50t-81 171z" />
<glyph unicode="&#xb4;" horiz-adv-x="722" d="M100 1167.5v36.5q0 33 1 67t1 70q139 141 262 252t230 228q10 -137 11 -256t18 -244q-121 -49 -260.5 -99.5t-260.5 -95.5q-2 23 -2 41.5z" />
<glyph unicode="&#xb5;" horiz-adv-x="882" d="M-27 -227l295 1685l342 31l-229 -1112q-6 -31 -6 -62q0 -37 11 -59.5t36 -22.5q49 0 84 57.5t49 147.5l197 1026l311 25l-213 -1092q-41 -207 -160 -321.5t-295 -114.5q-68 0 -110 21l-37 -160z" />
<glyph unicode="&#xb6;" horiz-adv-x="917" d="M188 1040q0 82 37 166t106.5 151.5t170 110.5t225.5 43q53 0 110.5 -10t107.5 -23.5t106 -31.5q-23 -92 -46.5 -199.5t-48 -222.5t-47 -229.5t-43.5 -221.5q-51 -250 -96 -505l-215 -23l129 668h-72l-147 -684l-221 -31q31 143 59 285q27 119 54.5 246.5t45.5 224.5 q-111 35 -163 112.5t-52 173.5z" />
<glyph unicode="&#xb7;" horiz-adv-x="438" d="M100 768q0 39 12.5 75t38 63.5t63.5 46t91 18.5q119 0 178.5 -56.5t59.5 -128.5q0 -38 -17.5 -77t-50.5 -69t-82 -47.5t-112 -17.5q-43 0 -78 16.5t-56.5 44.5t-34 62.5t-12.5 69.5z" />
<glyph unicode="&#xb8;" horiz-adv-x="647" d="M101 -262l39 180q53 -57 108 -57q45 0 75 32.5t30 83.5q0 25 -11 62q37 -4 60.5 -8t43 -7.5t21.5 -3.5q82 -80 82 -159q0 -43 -21.5 -79t-58 -62.5t-87 -42t-109.5 -15.5q-49 0 -95 18.5t-77 57.5z" />
<glyph unicode="&#xb9;" horiz-adv-x="649" d="M164 1090q4 23 11 72.5t13 101.5q8 59 17 127q45 10 125 20q70 10 183.5 26.5t283.5 39.5q-47 -231 -96.5 -513t-106.5 -575q-43 -10 -103.5 -22.5t-113.5 -22.5q-67 -12 -133 -22q29 133 55 272q25 119 53.5 258t48.5 268q-47 -4 -92 -10q-37 -4 -76.5 -10t-68.5 -10z " />
<glyph unicode="&#xba;" horiz-adv-x="1009" d="M63 412q0 115 29 241.5t78 251.5t120.5 237.5t158 200t184.5 138.5t205 51q92 0 152.5 -38t94 -98.5t48 -136t14.5 -151.5q0 -168 -36 -316.5t-95.5 -272.5t-138 -221t-164.5 -166t-174 -104.5t-168 -35.5q-68 0 -123 25.5t-96 75.5t-65 129t-24 190zM369 465 q0 -23 8 -47.5t22.5 -43t36 -31.5t45.5 -13q92 0 164 63.5t119 155.5t72.5 196.5t25.5 190.5q0 25 -3 53.5t-12 53t-28.5 42t-52.5 17.5q-66 0 -121 -33t-99 -87t-77 -122.5t-56.5 -139.5t-33.5 -138.5t-10 -116.5z" />
<glyph unicode="&#xbb;" horiz-adv-x="948" d="M29 59l32 140q14 59 29.5 127.5t30.5 132.5q47 39 85 68.5t70.5 55t60.5 46t50 45.5q-57 57 -110.5 115.5t-110.5 115.5q25 109 45 215.5t47 212.5q84 -102 165 -200.5t161 -208.5q-27 -137 -46.5 -274.5t-39.5 -276.5q-63 -59 -144.5 -112.5t-152.5 -100.5 q-84 -52 -172 -101zM487 59q18 70 35 140q14 59 28.5 127.5t29.5 132.5q49 39 87 68.5t70.5 55t59 46t51.5 45.5q-57 57 -110.5 115.5t-110.5 115.5q23 109 44 215.5t48 212.5q84 -102 165 -200.5t160 -208.5q-27 -137 -46 -274.5t-40 -276.5q-63 -59 -145 -112.5 t-154 -100.5q-84 -52 -172 -101z" />
<glyph unicode="&#xbc;" horiz-adv-x="2220" d="M209 1090q4 23 10 72.5t12 101.5q8 59 17 127q47 10 127 20q70 10 182.5 26.5t282.5 39.5q-45 -231 -94.5 -513t-106.5 -575q-45 -10 -105.5 -22.5t-113.5 -22.5q-65 -12 -131 -22q27 133 55 272q25 119 52.5 258t49.5 268q-49 -4 -92 -10q-39 -4 -78.5 -10t-66.5 -10z M459 20q43 59 115.5 161t161.5 229t189.5 272t202 295.5t195.5 296t172 274.5q18 -12 60 -23.5t92.5 -19.5t100.5 -13t85 -9q-63 -92 -140 -208t-161 -241t-171 -255t-169 -251q-192 -286 -393 -587zM1309 281q66 150 125 288q27 61 52 123t52 120t48.5 110.5t39.5 89.5 q84 0 160 3t162 13q-76 -141 -138.5 -285.5t-123.5 -293.5q-2 -10 -4.5 -18.5t-6.5 -18.5h146q2 10 8 33.5t13 57.5t16.5 71.5t19.5 74.5q23 90 47 199q57 6 111 12q47 4 100 9t96 10q-4 -23 -20.5 -89.5t-33.5 -143.5t-33.5 -143.5t-20.5 -90.5h112l-82 -246h-102l-18 -203 l-332 -49l41 248l-344 -23z" />
<glyph unicode="&#xbd;" horiz-adv-x="2383" d="M164 1090q4 23 11 72.5t13 101.5q8 59 17 127q45 10 125 20q70 10 183.5 26.5t283.5 39.5q-47 -231 -96.5 -513t-106.5 -575q-43 -10 -103.5 -22.5t-113.5 -22.5q-67 -12 -133 -22q29 133 55 272q25 119 53.5 258t48.5 268q-47 -4 -92 -10q-37 -4 -76.5 -10t-68.5 -10z M544 20q45 59 118 161t162 229t189.5 272t201 295.5t195.5 296t173 274.5q18 -12 60 -23.5t92.5 -19.5t100.5 -13t83 -9q-61 -92 -138 -208t-161 -241t-171 -255t-169 -251q-193 -286 -396 -587zM1464 -14l35 201q8 49 53 98t110.5 99.5t139.5 99.5t136.5 93t103.5 82t41 68 q0 45 -24 72t-56 27q-37 0 -59.5 -12.5t-37 -31t-20.5 -41t-6 -42.5v-19q0 -4 2 -6q-45 -4 -98 -6q-43 -4 -97.5 -9t-105.5 -9q-2 12 -3 24t-1 25q0 94 42 166.5t109.5 124t152.5 78t169 26.5q74 0 144.5 -19.5t121.5 -58.5t84 -98.5t33 -140.5q0 -78 -46 -152t-127 -143.5 t-192.5 -135t-238.5 -127.5q43 0 114.5 2.5t146 6.5t162.5 8l-34 -229q-39 -2 -92.5 -3.5t-115 -3.5t-125 -3t-122.5 -3q-143 -4 -299 -8z" />
<glyph unicode="&#xbe;" horiz-adv-x="2314" d="M129 514q0 41 16 82l328 16q0 -33 13.5 -46t33.5 -13q18 0 40 10t40 28.5t29.5 41t11.5 47.5q0 41 -43 72.5t-141 31.5q-74 0 -145.5 -8t-116.5 -12l30 240q70 37 142.5 79.5t134.5 79.5q72 45 139 86l-381 -6l23 242q156 6 288 10q57 2 115.5 4t110 4t93.5 3t66 1 l-45 -344l-311 -172q90 -12 152.5 -39.5t103.5 -63.5t58.5 -80t17.5 -89q0 -76 -42 -151.5t-112.5 -136t-164 -99.5t-195.5 -39q-125 0 -207 50t-82 171zM586 20q45 59 117.5 161t161.5 229t188.5 272t201 295.5t196.5 296t173 274.5q18 -12 60 -23.5t92.5 -19.5t99.5 -13 t84 -9q-61 -92 -138 -208t-161 -241t-171 -255t-169 -251q-192 -286 -395 -587zM1403 281q66 150 125 288q27 61 52.5 123t52 120t48 110.5t39.5 89.5q84 0 160 3t162 13q-76 -141 -139.5 -285.5t-122.5 -293.5q-2 -10 -4 -18.5t-7 -18.5h146q2 10 7 33.5t13.5 57.5 t17.5 71.5t19 74.5q23 90 47 199q57 6 111 12q47 4 100.5 9t96.5 10q-4 -23 -20.5 -89.5t-34 -143.5t-34 -143.5t-20.5 -90.5h113l-82 -246h-103l-18 -203l-332 -49l39 248l-342 -23z" />
<glyph unicode="&#xbf;" horiz-adv-x="899" d="M55 221q0 100 33 171t81 124t108.5 98t116 92.5t100.5 104.5t63 135l121 12l121 13q0 -111 -32 -197t-79 -152.5t-101.5 -118.5t-101.5 -94t-77.5 -76t-30.5 -67q0 -12 16.5 -33.5t50.5 -21.5q39 0 95.5 31.5t114 73.5t118.5 98l109 -252q-104 -94 -235.5 -148.5 t-266.5 -54.5q-66 0 -124 13.5t-102 45t-71 82t-27 121.5zM461 1268q0 43 18.5 84t55 74.5t91 54t122.5 20.5q82 0 120.5 -50t38.5 -120q0 -39 -14 -79t-44 -72.5t-73 -53t-98 -20.5q-113 0 -165 49t-52 113z" />
<glyph unicode="&#xc0;" d="M-43 12q82 272 162 537q33 111 68.5 231.5t71.5 240.5t68.5 230.5t57.5 202.5q139 10 283.5 24.5t281.5 39.5q-6 -66 -13 -163.5t-13 -212t-12.5 -239.5t-12.5 -246q-10 -283 -22 -600q-61 -10 -123 -16q-52 -8 -113 -18.5t-111 -18.5q8 68 17 133q6 57 11 114.5t9 98.5 h-178l-82 -295q-45 -6 -106.5 -13t-114.5 -13q-66 -8 -129 -17zM137 1673q12 59 28.5 144t31.5 165q18 94 36 193q80 -86 160 -168q68 -72 144.5 -154t134.5 -147l-15 -166q-104 25 -200 49q-84 18 -172 41.5t-148 42.5zM438 555q8 0 29.5 1t45.5 2t44.5 2t28.5 3q0 12 3 42 t6 68t7 83t8 88q8 104 21 225l12 178l-31 -2l-47 -176z" />
<glyph unicode="&#xc1;" d="M-43 12q82 272 162 537q33 111 68.5 231.5t71.5 240.5t68.5 230.5t57.5 202.5q139 10 283.5 24.5t281.5 39.5q-6 -66 -13 -163.5t-13 -212t-12.5 -239.5t-12.5 -246q-10 -283 -22 -600q-61 -10 -123 -16q-52 -8 -113 -18.5t-111 -18.5q8 68 17 133q6 57 11 114.5t9 98.5 h-178l-82 -295q-45 -6 -106.5 -13t-114.5 -13q-66 -8 -129 -17zM415 1614q0 33 1.5 67t1.5 70q139 141 262 252t229 228q10 -137 11 -256t18 -244q-121 -49 -260.5 -99.5t-259.5 -95.5q-2 23 -2.5 41.5t-0.5 36.5zM438 555q8 0 29.5 1t45.5 2t44.5 2t28.5 3q0 12 3 42t6 68 t7 83t8 88q8 104 21 225l12 178l-31 -2l-47 -176z" />
<glyph unicode="&#xc2;" d="M-43 12q82 272 162 537q33 111 68.5 231.5t71.5 240.5t68.5 230.5t57.5 202.5q139 10 283.5 24.5t281.5 39.5q-6 -66 -13 -163.5t-13 -212t-12.5 -239.5t-12.5 -246q-10 -283 -22 -600q-61 -10 -123 -16q-52 -8 -113 -18.5t-111 -18.5q8 68 17 133q6 57 11 114.5t9 98.5 h-178l-82 -295q-45 -6 -106.5 -13t-114.5 -13q-66 -8 -129 -17zM326 1648q57 84 118 164q51 68 112 141.5t114 126.5q80 -12 111.5 -10t35.5 -2q16 -55 36 -127t38 -135q23 -76 45 -152q-25 -20 -49 -41q-20 -18 -47 -37.5t-51 -37.5l-125 241q-23 -20 -53.5 -53 t-61.5 -67.5t-61.5 -67.5t-51.5 -55q-27 23 -47 42t-33 35q-18 18 -30 35zM438 555q8 0 29.5 1t45.5 2t44.5 2t28.5 3q0 12 3 42t6 68t7 83t8 88q8 104 21 225l12 178l-31 -2l-47 -176z" />
<glyph unicode="&#xc3;" d="M-43 12q82 272 162 537q33 111 68.5 231.5t71.5 240.5t68.5 230.5t57.5 202.5q139 10 283.5 24.5t281.5 39.5q-6 -66 -13 -163.5t-13 -212t-12.5 -239.5t-12.5 -246q-10 -283 -22 -600q-61 -10 -123 -16q-52 -8 -113 -18.5t-111 -18.5q8 68 17 133q6 57 11 114.5t9 98.5 h-178l-82 -295q-45 -6 -106.5 -13t-114.5 -13q-66 -8 -129 -17zM223 1661l13 26q12 27 34.5 67t54 87t70.5 87t84 67.5t98 27.5q49 0 87 -28.5t67 -61t46 -59.5t28 -27q31 0 59.5 21.5t55 52.5t51 61.5t45.5 49.5q25 -18 45 -35t36 -29t29 -27q-43 -100 -98 -178 q-23 -35 -51.5 -65.5t-61.5 -55t-68.5 -40t-76.5 -15.5q-49 0 -75 21.5t-46.5 48t-42 48t-64.5 21.5q-30 0 -59 -17t-54.5 -42t-50 -51.5t-44.5 -44.5q-27 18 -46.5 34.5t-36 29t-28.5 26.5zM438 555q8 0 29.5 1t45.5 2t44.5 2t28.5 3q0 12 3 42t6 68t7 83t8 88 q8 104 21 225l12 178l-31 -2l-47 -176z" />
<glyph unicode="&#xc4;" d="M-43 12q82 272 162 537q33 111 68.5 231.5t71.5 240.5t68.5 230.5t57.5 202.5q139 10 283.5 24.5t281.5 39.5q-6 -66 -13 -163.5t-13 -212t-12.5 -239.5t-12.5 -246q-10 -283 -22 -600q-61 -10 -123 -16q-52 -8 -113 -18.5t-111 -18.5q8 68 17 133q6 57 11 114.5t9 98.5 h-178l-82 -295q-45 -6 -106.5 -13t-114.5 -13q-66 -8 -129 -17zM148 1843q0 35 11 67.5t33.5 57.5t57.5 41t82 16q100 0 148 -51t48 -115q0 -36 -13 -70t-42 -60.5t-69.5 -44t-92.5 -17.5q-82 0 -122.5 54.5t-40.5 121.5zM438 555q8 0 29.5 1t45.5 2t44.5 2t28.5 3 q0 12 3 42t6 68t7 83t8 88q8 104 21 225l12 178l-31 -2l-47 -176zM623 1843q0 35 11 67.5t33.5 57.5t58.5 41t83 16q98 0 147.5 -51t49.5 -115q0 -36 -14.5 -70t-42 -60.5t-67.5 -44t-95 -17.5q-82 0 -123 54.5t-41 121.5z" />
<glyph unicode="&#xc5;" d="M-43 12q82 272 162 537q33 111 68.5 231.5t71.5 240.5t68.5 230.5t57.5 202.5q139 10 283.5 24.5t281.5 39.5q-6 -66 -13 -163.5t-13 -212t-12.5 -239.5t-12.5 -246q-10 -283 -22 -600q-61 -10 -123 -16q-52 -8 -113 -18.5t-111 -18.5q8 68 17 133q6 57 11 114.5t9 98.5 h-178l-82 -295q-45 -6 -106.5 -13t-114.5 -13q-66 -8 -129 -17zM344 1780q0 43 13.5 86t44 75.5t75.5 53t105 20.5q57 0 100 -18t71.5 -47t43 -68t14.5 -82q0 -45 -16.5 -89t-50 -78.5t-82 -57t-109.5 -22.5q-51 0 -90 19t-66.5 51t-40 73t-12.5 84zM438 555q8 0 29.5 1 t45.5 2t44.5 2t28.5 3q0 12 3 42t6 68t7 83t8 88q8 104 21 225l12 178l-31 -2l-47 -176zM467 1776q0 -43 28.5 -79t79.5 -36q63 0 97.5 40t34.5 85q0 43 -30 76t-89 33q-61 0 -91 -37t-30 -82z" />
<glyph unicode="&#xc6;" horiz-adv-x="1056" d="M-59 12q106 272 209 537q45 111 91 231.5t91 240.5t86 230.5t74 202.5q70 6 130 8t121.5 3t129 3t153.5 11l213 16l-80 -248q-12 2 -32.5 4t-45 3t-57.5 1l-51 -366q27 4 53 6q23 2 49.5 2t48.5 2q-8 -57 -15 -112.5t-17 -112.5q-23 -2 -48.5 -3t-48.5 -3q-25 -2 -51 -4 l-53 -375l172 12l-21 -233l-538 -70v6h-4q14 68 26.5 129.5t23.5 118.5t17 98h-149l-107 -295q-45 -6 -109.5 -13t-121.5 -13q-68 -8 -139 -17zM483 555q8 0 25.5 1l35 2l35 2t25.5 3q2 18 10.5 63.5t18.5 107t23.5 132t26.5 141t25.5 134t20.5 106.5l-20 -2l-68 -176z" />
<glyph unicode="&#xc7;" horiz-adv-x="847" d="M80 449q0 193 53 380t149.5 336.5t228.5 240.5t292 91q49 0 94 -20.5t78 -57.5t52.5 -90t19.5 -119v-25.5t-3 -27.5l-268 -72q-25 51 -57 52q-33 0 -69 -38t-70.5 -98.5t-67.5 -135t-57.5 -150.5t-40 -144.5t-15.5 -111.5q0 -66 17.5 -92.5t46.5 -26.5q23 0 51.5 17.5 t53 45t45 62.5t28.5 70l233 -95q-49 -112 -109 -195t-127 -139.5t-134.5 -83t-130.5 -26.5t-115.5 28.5t-91.5 86t-62.5 141.5t-23.5 197zM201 -262l39 180q53 -57 108 -57q45 0 75 32.5t30 83.5q0 25 -11 62q37 -4 60.5 -8t43 -7.5t21.5 -3.5q82 -80 82 -159 q0 -43 -21.5 -79t-58.5 -62.5t-87 -42t-109 -15.5q-49 0 -95.5 18.5t-76.5 57.5z" />
<glyph unicode="&#xc8;" horiz-adv-x="698" d="M16 -2l269 1456l647 55q-14 -45 -25 -92q-10 -39 -19 -81t-16 -74q-20 -2 -58 -3.5t-81 -2.5t-87 -1h-77l-71 -366q63 4 118 6q45 2 92.5 2t69.5 2q-8 -57 -15 -112.5t-18 -112.5q-20 -2 -66 -3t-93 -3q-53 -2 -117 -4l-70 -377l299 47l-20 -234zM102 1733 q12 59 28.5 144t31.5 165q18 94 36 193q80 -86 160 -168q68 -72 144.5 -154t134.5 -147l-15 -166q-104 25 -200 49q-84 18 -172 41.5t-148 42.5z" />
<glyph unicode="&#xc9;" horiz-adv-x="698" d="M16 -2l269 1456l647 55q-14 -45 -25 -92q-10 -39 -19 -81t-16 -74q-20 -2 -58 -3.5t-81 -2.5t-87 -1h-77l-71 -366q63 4 118 6q45 2 92.5 2t69.5 2q-8 -57 -15 -112.5t-18 -112.5q-20 -2 -66 -3t-93 -3q-53 -2 -117 -4l-70 -377l299 47l-20 -234zM380 1673q0 33 1.5 67 t1.5 70q139 141 262 252t229 228q10 -137 11 -256t18 -244q-121 -49 -260.5 -99.5t-259.5 -95.5q-2 23 -2.5 41.5t-0.5 36.5z" />
<glyph unicode="&#xca;" horiz-adv-x="698" d="M16 -2l269 1456l647 55q-14 -45 -25 -92q-10 -39 -19 -81t-16 -74q-20 -2 -58 -3.5t-81 -2.5t-87 -1h-77l-71 -366q63 4 118 6q45 2 92.5 2t69.5 2q-8 -57 -15 -112.5t-18 -112.5q-20 -2 -66 -3t-93 -3q-53 -2 -117 -4l-70 -377l299 47l-20 -234zM291 1708q57 84 118 164 q51 68 112 141.5t114 126.5q80 -12 111.5 -10t35.5 -2q16 -55 36 -127t38 -135q23 -76 45 -152q-25 -20 -49 -41q-20 -18 -47 -37.5t-51 -37.5l-125 241q-23 -20 -53.5 -53t-61.5 -67.5t-61.5 -67.5t-51.5 -55q-27 23 -47 42t-33 35q-18 18 -30 35z" />
<glyph unicode="&#xcb;" horiz-adv-x="698" d="M16 -2l269 1456l647 55q-14 -45 -25 -92q-10 -39 -19 -81t-16 -74q-20 -2 -58 -3.5t-81 -2.5t-87 -1h-77l-71 -366q63 4 118 6q45 2 92.5 2t69.5 2q-8 -57 -15 -112.5t-18 -112.5q-20 -2 -66 -3t-93 -3q-53 -2 -117 -4l-70 -377l299 47l-20 -234zM113 1902q0 35 11 67.5 t33.5 57.5t57.5 41t82 16q100 0 148 -51t48 -115q0 -36 -13 -70t-42 -60.5t-69.5 -44t-92.5 -17.5q-82 0 -122.5 54.5t-40.5 121.5zM588 1902q0 35 11 67.5t33.5 57.5t58.5 41t83 16q98 0 147.5 -51t49.5 -115q0 -36 -14.5 -70t-42 -60.5t-67.5 -44t-95 -17.5 q-82 0 -123 54.5t-41 121.5z" />
<glyph unicode="&#xcc;" horiz-adv-x="409" d="M-12 2q25 88 49 195.5t50 225.5t49.5 238.5t45.5 233.5q51 262 101 539l319 51q-53 -274 -106 -539q-23 -113 -46.5 -233.5t-45 -239.5t-43 -230.5t-37.5 -201.5q-19 0 -72 -5t-110.5 -12.5l-103.5 -13.5t-50 -8zM115 1673q12 59 28.5 144t31.5 165q18 94 36 193 q80 -86 160 -168q68 -72 144.5 -154t134.5 -147l-15 -166q-104 25 -200 49q-84 18 -172 41.5t-148 42.5z" />
<glyph unicode="&#xcd;" horiz-adv-x="409" d="M-12 2q25 88 49 195.5t50 225.5t49.5 238.5t45.5 233.5q51 262 101 539l319 51q-53 -274 -106 -539q-23 -113 -46.5 -233.5t-45 -239.5t-43 -230.5t-37.5 -201.5q-19 0 -72 -5t-110.5 -12.5l-103.5 -13.5t-50 -8zM393 1614q0 33 1.5 67t1.5 70q139 141 262 252t229 228 q10 -137 11 -256t18 -244q-121 -49 -260.5 -99.5t-259.5 -95.5q-2 23 -2.5 41.5t-0.5 36.5z" />
<glyph unicode="&#xce;" horiz-adv-x="409" d="M-12 2q25 88 49 195.5t50 225.5t49.5 238.5t45.5 233.5q51 262 101 539l319 51q-53 -274 -106 -539q-23 -113 -46.5 -233.5t-45 -239.5t-43 -230.5t-37.5 -201.5q-19 0 -72 -5t-110.5 -12.5l-103.5 -13.5t-50 -8zM303 1648q57 84 118 164q51 68 112 141.5t114 126.5 q80 -12 111.5 -10t35.5 -2q16 -55 36 -127t38 -135q23 -76 45 -152q-25 -20 -49 -41q-20 -18 -47 -37.5t-51 -37.5l-125 241q-23 -20 -53.5 -53t-61.5 -67.5t-61.5 -67.5t-51.5 -55q-27 23 -47 42t-33 35q-18 18 -30 35z" />
<glyph unicode="&#xcf;" horiz-adv-x="409" d="M-12 2q25 88 49 195.5t50 225.5t49.5 238.5t45.5 233.5q51 262 101 539l319 51q-53 -274 -106 -539q-23 -113 -46.5 -233.5t-45 -239.5t-43 -230.5t-37.5 -201.5q-19 0 -72 -5t-110.5 -12.5l-103.5 -13.5t-50 -8zM125 1843q0 35 11 67.5t33.5 57.5t57.5 41t82 16 q100 0 148 -51t48 -115q0 -36 -13 -70t-42 -60.5t-69.5 -44t-92.5 -17.5q-82 0 -122.5 54.5t-40.5 121.5zM600 1843q0 35 11 67.5t33.5 57.5t58.5 41t83 16q98 0 147.5 -51t49.5 -115q0 -36 -14.5 -70t-42 -60.5t-67.5 -44t-95 -17.5q-82 0 -123 54.5t-41 121.5z" />
<glyph unicode="&#xd0;" horiz-adv-x="911" d="M27 86q16 80 34 176q16 82 39 187.5t43 228.5q-14 -2 -27.5 -2h-23.5h-22l67 217q6 -2 15 -2h32q29 152 53.5 296t41.5 263q88 16 178 30.5t184 14.5q104 0 179 -38t120 -104.5t65.5 -155.5t20.5 -191q0 -109 -23.5 -225.5t-68.5 -227.5t-110.5 -211t-148.5 -175 t-183.5 -119t-212.5 -44q-66 0 -128.5 19.5t-123.5 62.5zM350 248q74 45 139.5 132t116.5 193.5t82 220t31 210.5q0 51 -10.5 95t-33 76.5t-55 51t-75.5 18.5q-20 -92 -38 -178t-34 -176q23 0 43.5 1t36.5 1t33 2l-49 -221h-31q-14 0 -31.5 1t-38.5 1q-20 -98 -39.5 -202.5 t-46.5 -225.5z" />
<glyph unicode="&#xd1;" horiz-adv-x="927" d="M12 -10q57 289 111 563q20 115 43.5 241t44 247.5t38 235.5t27.5 208q63 4 123 8q53 4 108.5 7t98.5 7q27 -158 47 -301q10 -61 21.5 -127.5t22 -128t20.5 -118t20 -99.5q8 43 18.5 99.5t23 119t25.5 128t25 126.5q31 143 64 299l250 31q-70 -307 -123 -582 q-25 -119 -48.5 -239.5t-44 -233t-34.5 -208t-23 -160.5q-6 0 -48 -9.5t-96 -21.5t-108.5 -25.5t-80.5 -21.5q-14 166 -31 315q-6 63 -14.5 131t-15.5 129.5t-14 115.5t-13 91q-6 -37 -16.5 -90t-21 -113.5t-20.5 -125t-22 -126.5q-27 -145 -58 -303zM414 1661l13 26 q12 27 34.5 67t54 87t70.5 87t84 67.5t98 27.5q49 0 87 -28.5t67 -61t46 -59.5t28 -27q31 0 59.5 21.5t55 52.5t51 61.5t45.5 49.5q25 -18 45 -35t36 -29t29 -27q-43 -100 -98 -178q-23 -35 -51.5 -65.5t-61.5 -55t-68.5 -40t-76.5 -15.5q-49 0 -75 21.5t-46.5 48t-42 48 t-64.5 21.5q-30 0 -59 -17t-54.5 -42t-50 -51.5t-44.5 -44.5q-27 18 -46.5 34.5t-36 29t-28.5 26.5z" />
<glyph unicode="&#xd2;" horiz-adv-x="1009" d="M63 412q0 115 29 241.5t78 251.5t120.5 237.5t158 200t184.5 138.5t205 51q92 0 152.5 -38t94 -98.5t48 -136t14.5 -151.5q0 -168 -36 -316.5t-95.5 -272.5t-138 -221t-164.5 -166t-174 -104.5t-168 -35.5q-68 0 -123 25.5t-96 75.5t-65 129t-24 190zM369 465 q0 -23 8 -47.5t22.5 -43t36 -31.5t45.5 -13q92 0 164 63.5t119 155.5t72.5 196.5t25.5 190.5q0 25 -3 53.5t-12 53t-28.5 42t-52.5 17.5q-66 0 -121 -33t-99 -87t-77 -122.5t-56.5 -139.5t-33.5 -138.5t-10 -116.5zM407 1733q12 59 28.5 144t31.5 165q18 94 36 193 q80 -86 160 -168q68 -72 144.5 -154t134.5 -147l-15 -166q-104 25 -200 49q-84 18 -172 41.5t-148 42.5z" />
<glyph unicode="&#xd3;" horiz-adv-x="1009" d="M63 412q0 115 29 241.5t78 251.5t120.5 237.5t158 200t184.5 138.5t205 51q92 0 152.5 -38t94 -98.5t48 -136t14.5 -151.5q0 -168 -36 -316.5t-95.5 -272.5t-138 -221t-164.5 -166t-174 -104.5t-168 -35.5q-68 0 -123 25.5t-96 75.5t-65 129t-24 190zM369 465 q0 -23 8 -47.5t22.5 -43t36 -31.5t45.5 -13q92 0 164 63.5t119 155.5t72.5 196.5t25.5 190.5q0 25 -3 53.5t-12 53t-28.5 42t-52.5 17.5q-66 0 -121 -33t-99 -87t-77 -122.5t-56.5 -139.5t-33.5 -138.5t-10 -116.5zM686 1673q0 33 1.5 67t1.5 70q139 141 262 252t229 228 q10 -137 11 -256t18 -244q-121 -49 -260.5 -99.5t-259.5 -95.5q-2 23 -2.5 41.5t-0.5 36.5z" />
<glyph unicode="&#xd4;" horiz-adv-x="1009" d="M63 412q0 115 29 241.5t78 251.5t120.5 237.5t158 200t184.5 138.5t205 51q92 0 152.5 -38t94 -98.5t48 -136t14.5 -151.5q0 -168 -36 -316.5t-95.5 -272.5t-138 -221t-164.5 -166t-174 -104.5t-168 -35.5q-68 0 -123 25.5t-96 75.5t-65 129t-24 190zM369 465 q0 -23 8 -47.5t22.5 -43t36 -31.5t45.5 -13q92 0 164 63.5t119 155.5t72.5 196.5t25.5 190.5q0 25 -3 53.5t-12 53t-28.5 42t-52.5 17.5q-66 0 -121 -33t-99 -87t-77 -122.5t-56.5 -139.5t-33.5 -138.5t-10 -116.5zM596 1708q57 84 118 164q51 68 112 141.5t114 126.5 q80 -12 111.5 -10t35.5 -2q16 -55 36 -127t38 -135q23 -76 45 -152q-25 -20 -49 -41q-20 -18 -47 -37.5t-51 -37.5l-125 241q-23 -20 -53.5 -53t-61.5 -67.5t-61.5 -67.5t-51.5 -55q-27 23 -47 42t-33 35q-18 18 -30 35z" />
<glyph unicode="&#xd5;" horiz-adv-x="1009" d="M63 412q0 115 29 241.5t78 251.5t120.5 237.5t158 200t184.5 138.5t205 51q92 0 152.5 -38t94 -98.5t48 -136t14.5 -151.5q0 -168 -36 -316.5t-95.5 -272.5t-138 -221t-164.5 -166t-174 -104.5t-168 -35.5q-68 0 -123 25.5t-96 75.5t-65 129t-24 190zM369 465 q0 -23 8 -47.5t22.5 -43t36 -31.5t45.5 -13q92 0 164 63.5t119 155.5t72.5 196.5t25.5 190.5q0 25 -3 53.5t-12 53t-28.5 42t-52.5 17.5q-66 0 -121 -33t-99 -87t-77 -122.5t-56.5 -139.5t-33.5 -138.5t-10 -116.5zM494 1720l13 26q12 27 34.5 67t54 87t70.5 87t84 67.5 t98 27.5q49 0 87 -28.5t67 -61t46 -59.5t28 -27q31 0 59.5 21.5t55 52.5t51 61.5t45.5 49.5q25 -18 45 -35t36 -29t29 -27q-43 -100 -98 -178q-23 -35 -51.5 -65.5t-61.5 -55t-68.5 -40t-76.5 -15.5q-49 0 -75 21.5t-46.5 48t-42 48t-64.5 21.5q-30 0 -59 -17t-54.5 -42 t-50 -51.5t-44.5 -44.5q-27 18 -46.5 34.5t-36 29t-28.5 26.5z" />
<glyph unicode="&#xd6;" horiz-adv-x="1009" d="M63 412q0 115 29 241.5t78 251.5t120.5 237.5t158 200t184.5 138.5t205 51q92 0 152.5 -38t94 -98.5t48 -136t14.5 -151.5q0 -168 -36 -316.5t-95.5 -272.5t-138 -221t-164.5 -166t-174 -104.5t-168 -35.5q-68 0 -123 25.5t-96 75.5t-65 129t-24 190zM369 465 q0 -23 8 -47.5t22.5 -43t36 -31.5t45.5 -13q92 0 164 63.5t119 155.5t72.5 196.5t25.5 190.5q0 25 -3 53.5t-12 53t-28.5 42t-52.5 17.5q-66 0 -121 -33t-99 -87t-77 -122.5t-56.5 -139.5t-33.5 -138.5t-10 -116.5zM418 1902q0 35 11 67.5t33.5 57.5t57.5 41t82 16 q100 0 148 -51t48 -115q0 -36 -13 -70t-42 -60.5t-69.5 -44t-92.5 -17.5q-82 0 -122.5 54.5t-40.5 121.5zM893 1902q0 35 11 67.5t33.5 57.5t58.5 41t83 16q98 0 147.5 -51t49.5 -115q0 -36 -14.5 -70t-42 -60.5t-67.5 -44t-95 -17.5q-82 0 -123 54.5t-41 121.5z" />
<glyph unicode="&#xd7;" horiz-adv-x="1015" d="M29 279q51 59 117.5 141t129.5 155q72 86 146 177q-20 68 -39 137q-16 57 -36.5 123.5t-39.5 126.5l330 135q10 -66 31.5 -143.5t36.5 -147.5q39 72 80.5 136.5t86.5 131.5l297 -59q-53 -59 -112.5 -135t-110.5 -148q-59 -80 -117 -164q25 -74 52 -143 q20 -59 45.5 -127.5t48.5 -120.5q-4 -2 -28.5 -8t-61.5 -16.5t-81 -22.5t-86 -24.5t-79 -23.5t-57 -19q-12 47 -21 90q-6 37 -14 75.5t-12 63.5q-16 -27 -42 -63.5t-53 -71.5q-31 -39 -63 -86z" />
<glyph unicode="&#xd8;" horiz-adv-x="1009" d="M-2 82l98 115q-33 92 -33 215q0 115 29 241.5t78 251.5t120.5 237.5t158 200t184.5 138.5t205 51q80 0 135 -28.5t92 -78.5l72 95l104 -78l35 41l-150 -193q10 -45 15.5 -91t5.5 -91q0 -168 -36 -316.5t-95.5 -272.5t-138 -221t-164.5 -166t-174 -104.5t-168 -35.5 q-123 0 -203 80l-68 -88zM354 555q0 -12 1 -25.5t3 -25.5l488 588q-51 88 -121 88q-66 0 -130.5 -60.5t-118.5 -154t-88 -204t-34 -206.5zM401 371q54 -27 105 -27q57 0 109.5 31t96.5 80t77.5 113.5t59 129t38 128t12.5 110.5q0 33 -4 55z" />
<glyph unicode="&#xd9;" horiz-adv-x="858" d="M63 213v16.5t3 16.5q8 84 26.5 202.5t39 247.5t45 259t44 236.5t33.5 177.5t18 87q43 4 102.5 10.5t110.5 10.5q63 6 125 12q-53 -248 -94 -449q-18 -86 -35.5 -172t-33 -157.5t-26.5 -123.5t-18.5 -85t-16.5 -83t-9 -91q0 -33 16.5 -54.5t40.5 -21.5q35 0 57.5 27.5 t38 66.5t22.5 79t13 62q12 59 27.5 132t31 152t31 161t29.5 160q35 180 68 372l311 21l-11 -53q-10 -54 -26 -142t-35.5 -200.5t-44 -234.5t-48.5 -239.5t-46 -216.5q-29 -116 -81 -198t-122.5 -135.5t-150.5 -78t-160 -24.5q-47 0 -96 15.5t-88 46t-65 78t-26 110.5z M332 1692q12 59 28.5 144t31.5 165q18 94 36 193q80 -86 160 -168q68 -72 144.5 -154t134.5 -147l-15 -166q-104 25 -200 49q-84 18 -172 41.5t-148 42.5z" />
<glyph unicode="&#xda;" horiz-adv-x="858" d="M63 213v16.5t3 16.5q8 84 26.5 202.5t39 247.5t45 259t44 236.5t33.5 177.5t18 87q43 4 102.5 10.5t110.5 10.5q63 6 125 12q-53 -248 -94 -449q-18 -86 -35.5 -172t-33 -157.5t-26.5 -123.5t-18.5 -85t-16.5 -83t-9 -91q0 -33 16.5 -54.5t40.5 -21.5q35 0 57.5 27.5 t38 66.5t22.5 79t13 62q12 59 27.5 132t31 152t31 161t29.5 160q35 180 68 372l311 21l-11 -53q-10 -54 -26 -142t-35.5 -200.5t-44 -234.5t-48.5 -239.5t-46 -216.5q-29 -116 -81 -198t-122.5 -135.5t-150.5 -78t-160 -24.5q-47 0 -96 15.5t-88 46t-65 78t-26 110.5z M610 1632q0 33 1.5 67t1.5 70q139 141 262 252t229 228q10 -137 11 -256t18 -244q-121 -49 -260.5 -99.5t-259.5 -95.5q-2 23 -2.5 41.5t-0.5 36.5z" />
<glyph unicode="&#xdb;" horiz-adv-x="858" d="M63 213v16.5t3 16.5q8 84 26.5 202.5t39 247.5t45 259t44 236.5t33.5 177.5t18 87q43 4 102.5 10.5t110.5 10.5q63 6 125 12q-53 -248 -94 -449q-18 -86 -35.5 -172t-33 -157.5t-26.5 -123.5t-18.5 -85t-16.5 -83t-9 -91q0 -33 16.5 -54.5t40.5 -21.5q35 0 57.5 27.5 t38 66.5t22.5 79t13 62q12 59 27.5 132t31 152t31 161t29.5 160q35 180 68 372l311 21l-11 -53q-10 -54 -26 -142t-35.5 -200.5t-44 -234.5t-48.5 -239.5t-46 -216.5q-29 -116 -81 -198t-122.5 -135.5t-150.5 -78t-160 -24.5q-47 0 -96 15.5t-88 46t-65 78t-26 110.5z M520 1667q57 84 118 164q51 68 112 141.5t114 126.5q80 -12 111.5 -10t35.5 -2q16 -55 36 -127t38 -135q23 -76 45 -152q-25 -20 -49 -41q-20 -18 -47 -37.5t-51 -37.5l-125 241q-23 -20 -53.5 -53t-61.5 -67.5t-61.5 -67.5t-51.5 -55q-27 23 -47 42t-33 35q-18 18 -30 35z " />
<glyph unicode="&#xdc;" horiz-adv-x="858" d="M63 213v16.5t3 16.5q8 84 26.5 202.5t39 247.5t45 259t44 236.5t33.5 177.5t18 87q43 4 102.5 10.5t110.5 10.5q63 6 125 12q-53 -248 -94 -449q-18 -86 -35.5 -172t-33 -157.5t-26.5 -123.5t-18.5 -85t-16.5 -83t-9 -91q0 -33 16.5 -54.5t40.5 -21.5q35 0 57.5 27.5 t38 66.5t22.5 79t13 62q12 59 27.5 132t31 152t31 161t29.5 160q35 180 68 372l311 21l-11 -53q-10 -54 -26 -142t-35.5 -200.5t-44 -234.5t-48.5 -239.5t-46 -216.5q-29 -116 -81 -198t-122.5 -135.5t-150.5 -78t-160 -24.5q-47 0 -96 15.5t-88 46t-65 78t-26 110.5z M342 1862q0 35 11 67.5t33.5 57.5t57.5 41t82 16q100 0 148 -51t48 -115q0 -36 -13 -70t-42 -60.5t-69.5 -44t-92.5 -17.5q-82 0 -122.5 54.5t-40.5 121.5zM817 1862q0 35 11 67.5t33.5 57.5t58.5 41t83 16q98 0 147.5 -51t49.5 -115q0 -36 -14.5 -70t-42 -60.5t-67.5 -44 t-95 -17.5q-82 0 -123 54.5t-41 121.5z" />
<glyph unicode="&#xdd;" horiz-adv-x="786" d="M158 31l94 411q0 88 -3 191.5t-9.5 208t-12.5 202t-10 172t-8 119.5l-4 45l334 127v-250v-104t-1 -104.5t-1 -96.5v-75q27 70 64.5 172t70.5 198q39 113 80 238l317 -72q-88 -176 -172 -350q-35 -76 -74 -157t-77.5 -161.5t-75.5 -156.5t-68 -142q-10 -53 -25.5 -116.5 t-29.5 -120.5q-18 -68 -39 -135zM555 1614q0 33 1.5 67t1.5 70q139 141 262 252t229 228q10 -137 11 -256t18 -244q-121 -49 -260.5 -99.5t-259.5 -95.5q-2 23 -2.5 41.5t-0.5 36.5z" />
<glyph unicode="&#xde;" horiz-adv-x="790" d="M2 -2q61 291 117 565q23 119 47 245t47 248t43 235.5t35 203.5q86 10 152.5 17.5t120.5 13.5t67 6l-43 -205q94 0 159.5 -31.5t107.5 -86t60.5 -126t18.5 -151.5q0 -115 -43 -219.5t-113.5 -185.5t-162 -129t-187.5 -48h-22q-16 -70 -24.5 -122t-14.5 -89q-8 -41 -11 -71 zM449 565q31 8 67.5 39t66 78t48 110.5t18.5 133.5q0 76 -33.5 114.5t-72.5 38.5q-25 -135 -47.5 -256t-46.5 -258z" />
<glyph unicode="&#xdf;" horiz-adv-x="897" d="M10 2q20 88 44 199.5t47.5 235.5t46 252t58.5 330t85 501q229 0 378.5 -19.5t237.5 -55.5t123 -82t35 -101q0 -102 -41 -171t-90 -121t-93 -94t-50 -88v-4q0 -18 18 -58t43 -96.5t43 -125t18 -146.5q0 -75 -15 -144t-53 -120t-99.5 -82.5t-153.5 -31.5q-51 0 -97 24.5 t-87 77.5l61 299q14 -51 43 -81t53 -30q23 0 37 20.5t14 69.5q0 61 -18 101.5t-38.5 82.5t-38 100t-17.5 159q0 84 44 151.5t96 120.5t96 92t44 64q0 20 -52 31.5t-183 11.5q-20 -117 -48 -274.5t-55.5 -327.5t-53 -336t-44.5 -295q-18 0 -72.5 -5t-112 -12.5l-103.5 -13.5 t-50 -8z" />
<glyph unicode="&#xe0;" d="M-43 12q82 272 162 537q33 111 68.5 231.5t71.5 240.5t68.5 230.5t57.5 202.5q139 10 283.5 24.5t281.5 39.5q-6 -66 -13 -163.5t-13 -212t-12.5 -239.5t-12.5 -246q-10 -283 -22 -600q-61 -10 -123 -16q-52 -8 -113 -18.5t-111 -18.5q8 68 17 133q6 57 11 114.5t9 98.5 h-178l-82 -295q-45 -6 -106.5 -13t-114.5 -13q-66 -8 -129 -17zM381 1710q12 59 28.5 144t31.5 165q18 94 36 193q80 -86 160 -168q68 -72 144.5 -154t134.5 -147l-15 -166q-104 25 -200 49q-84 18 -172 41.5t-148 42.5zM438 555q8 0 29.5 1t45.5 2t44.5 2t28.5 3q0 12 3 42 t6 68t7 83t8 88q8 104 21 225l12 178l-31 -2l-47 -176z" />
<glyph unicode="&#xe1;" d="M-43 12q82 272 162 537q33 111 68.5 231.5t71.5 240.5t68.5 230.5t57.5 202.5q139 10 283.5 24.5t281.5 39.5q-6 -66 -13 -163.5t-13 -212t-12.5 -239.5t-12.5 -246q-10 -283 -22 -600q-61 -10 -123 -16q-52 -8 -113 -18.5t-111 -18.5q8 68 17 133q6 57 11 114.5t9 98.5 h-178l-82 -295q-45 -6 -106.5 -13t-114.5 -13q-66 -8 -129 -17zM387 1644q0 33 1.5 67t1.5 70q139 141 262 252t229 228q10 -137 11 -256t18 -244q-121 -49 -260.5 -99.5t-259.5 -95.5q-2 23 -2.5 41.5t-0.5 36.5zM438 555q8 0 29.5 1t45.5 2t44.5 2t28.5 3q0 12 3 42t6 68 t7 83t8 88q8 104 21 225l12 178l-31 -2l-47 -176z" />
<glyph unicode="&#xe2;" d="M-43 12q82 272 162 537q33 111 68.5 231.5t71.5 240.5t68.5 230.5t57.5 202.5q139 10 283.5 24.5t281.5 39.5q-6 -66 -13 -163.5t-13 -212t-12.5 -239.5t-12.5 -246q-10 -283 -22 -600q-61 -10 -123 -16q-52 -8 -113 -18.5t-111 -18.5q8 68 17 133q6 57 11 114.5t9 98.5 h-178l-82 -295q-45 -6 -106.5 -13t-114.5 -13q-66 -8 -129 -17zM344 1689q57 84 118 164q51 68 112 141.5t114 126.5q80 -12 111.5 -10t35.5 -2q16 -55 36 -127t38 -135q23 -76 45 -152q-25 -20 -49 -41q-20 -18 -47 -37.5t-51 -37.5l-125 241q-23 -20 -53.5 -53 t-61.5 -67.5t-61.5 -67.5t-51.5 -55q-27 23 -47 42t-33 35q-18 18 -30 35zM438 555q8 0 29.5 1t45.5 2t44.5 2t28.5 3q0 12 3 42t6 68t7 83t8 88q8 104 21 225l12 178l-31 -2l-47 -176z" />
<glyph unicode="&#xe3;" d="M-43 12q82 272 162 537q33 111 68.5 231.5t71.5 240.5t68.5 230.5t57.5 202.5q139 10 283.5 24.5t281.5 39.5q-6 -66 -13 -163.5t-13 -212t-12.5 -239.5t-12.5 -246q-10 -283 -22 -600q-61 -10 -123 -16q-52 -8 -113 -18.5t-111 -18.5q8 68 17 133q6 57 11 114.5t9 98.5 h-178l-82 -295q-45 -6 -106.5 -13t-114.5 -13q-66 -8 -129 -17zM295 1720l13 26q12 27 34.5 67t54 87t70.5 87t84 67.5t98 27.5q49 0 87 -28.5t67 -61t46 -59.5t28 -27q31 0 59.5 21.5t55 52.5t51 61.5t45.5 49.5q25 -18 45 -35t36 -29t29 -27q-43 -100 -98 -178 q-23 -35 -51.5 -65.5t-61.5 -55t-68.5 -40t-76.5 -15.5q-49 0 -75 21.5t-46.5 48t-42 48t-64.5 21.5q-30 0 -59 -17t-54.5 -42t-50 -51.5t-44.5 -44.5q-27 18 -46.5 34.5t-36 29t-28.5 26.5zM438 555q8 0 29.5 1t45.5 2t44.5 2t28.5 3q0 12 3 42t6 68t7 83t8 88 q8 104 21 225l12 178l-31 -2l-47 -176z" />
<glyph unicode="&#xe4;" d="M-43 12q82 272 162 537q33 111 68.5 231.5t71.5 240.5t68.5 230.5t57.5 202.5q139 10 283.5 24.5t281.5 39.5q-6 -66 -13 -163.5t-13 -212t-12.5 -239.5t-12.5 -246q-10 -283 -22 -600q-61 -10 -123 -16q-52 -8 -113 -18.5t-111 -18.5q8 68 17 133q6 57 11 114.5t9 98.5 h-178l-82 -295q-45 -6 -106.5 -13t-114.5 -13q-66 -8 -129 -17zM220 1902q0 35 11 67.5t33.5 57.5t57.5 41t82 16q100 0 148 -51t48 -115q0 -36 -13 -70t-42 -60.5t-69.5 -44t-92.5 -17.5q-82 0 -122.5 54.5t-40.5 121.5zM438 555q8 0 29.5 1t45.5 2t44.5 2t28.5 3 q0 12 3 42t6 68t7 83t8 88q8 104 21 225l12 178l-31 -2l-47 -176zM695 1902q0 35 11 67.5t33.5 57.5t58.5 41t83 16q98 0 147.5 -51t49.5 -115q0 -36 -14.5 -70t-42 -60.5t-67.5 -44t-95 -17.5q-82 0 -123 54.5t-41 121.5z" />
<glyph unicode="&#xe5;" d="M-43 12q82 272 162 537q33 111 68.5 231.5t71.5 240.5t68.5 230.5t57.5 202.5q139 10 283.5 24.5t281.5 39.5q-6 -66 -13 -163.5t-13 -212t-12.5 -239.5t-12.5 -246q-10 -283 -22 -600q-61 -10 -123 -16q-52 -8 -113 -18.5t-111 -18.5q8 68 17 133q6 57 11 114.5t9 98.5 h-178l-82 -295q-45 -6 -106.5 -13t-114.5 -13q-66 -8 -129 -17zM416 1839q0 43 13.5 86t44 75.5t75.5 53t105 20.5q57 0 100 -18t71.5 -47t43 -68t14.5 -82q0 -45 -16.5 -89t-50 -78.5t-82 -57t-109.5 -22.5q-51 0 -90 19t-66.5 51t-40 73t-12.5 84zM438 555q8 0 29.5 1 t45.5 2t44.5 2t28.5 3q0 12 3 42t6 68t7 83t8 88q8 104 21 225l12 178l-31 -2l-47 -176zM539 1835q0 -43 28.5 -79t79.5 -36q63 0 97.5 40t34.5 85q0 43 -30 76t-89 33q-61 0 -91 -37t-30 -82z" />
<glyph unicode="&#xe6;" horiz-adv-x="1056" d="M-59 12q106 272 209 537q45 111 91 231.5t91 240.5t86 230.5t74 202.5q70 6 130 8t121.5 3t129 3t153.5 11l213 16l-80 -248q-12 2 -32.5 4t-45 3t-57.5 1l-51 -366q27 4 53 6q23 2 49.5 2t48.5 2q-8 -57 -15 -112.5t-17 -112.5q-23 -2 -48.5 -3t-48.5 -3q-25 -2 -51 -4 l-53 -375l172 12l-21 -233l-538 -70v6h-4q14 68 26.5 129.5t23.5 118.5t17 98h-149l-107 -295q-45 -6 -109.5 -13t-121.5 -13q-68 -8 -139 -17zM483 555q8 0 25.5 1l35 2l35 2t25.5 3q2 18 10.5 63.5t18.5 107t23.5 132t26.5 141t25.5 134t20.5 106.5l-20 -2l-68 -176z" />
<glyph unicode="&#xe7;" horiz-adv-x="847" d="M80 449q0 193 53 380t149.5 336.5t228.5 240.5t292 91q49 0 94 -20.5t78 -57.5t52.5 -90t19.5 -119v-25.5t-3 -27.5l-268 -72q-25 51 -57 52q-33 0 -69 -38t-70.5 -98.5t-67.5 -135t-57.5 -150.5t-40 -144.5t-15.5 -111.5q0 -66 17.5 -92.5t46.5 -26.5q23 0 51.5 17.5 t53 45t45 62.5t28.5 70l233 -95q-49 -112 -109 -195t-127 -139.5t-134.5 -83t-130.5 -26.5t-115.5 28.5t-91.5 86t-62.5 141.5t-23.5 197zM201 -262l39 180q53 -57 108 -57q45 0 75 32.5t30 83.5q0 25 -11 62q37 -4 60.5 -8t43 -7.5t21.5 -3.5q82 -80 82 -159 q0 -43 -21.5 -79t-58.5 -62.5t-87 -42t-109 -15.5q-49 0 -95.5 18.5t-76.5 57.5z" />
<glyph unicode="&#xe8;" horiz-adv-x="698" d="M16 -2l269 1456l647 55q-14 -45 -25 -92q-10 -39 -19 -81t-16 -74q-20 -2 -58 -3.5t-81 -2.5t-87 -1h-77l-71 -366q63 4 118 6q45 2 92.5 2t69.5 2q-8 -57 -15 -112.5t-18 -112.5q-20 -2 -66 -3t-93 -3q-53 -2 -117 -4l-70 -377l299 47l-20 -234zM364 1690 q12 59 28.5 144t31.5 165q18 94 36 193q80 -86 160 -168q68 -72 144.5 -154t134.5 -147l-15 -166q-104 25 -200 49q-84 18 -172 41.5t-148 42.5z" />
<glyph unicode="&#xe9;" horiz-adv-x="698" d="M16 -2l269 1456l647 55q-14 -45 -25 -92q-10 -39 -19 -81t-16 -74q-20 -2 -58 -3.5t-81 -2.5t-87 -1h-77l-71 -366q63 4 118 6q45 2 92.5 2t69.5 2q-8 -57 -15 -112.5t-18 -112.5q-20 -2 -66 -3t-93 -3q-53 -2 -117 -4l-70 -377l299 47l-20 -234zM370 1624q0 33 1.5 67 t1.5 70q139 141 262 252t229 228q10 -137 11 -256t18 -244q-121 -49 -260.5 -99.5t-259.5 -95.5q-2 23 -2.5 41.5t-0.5 36.5z" />
<glyph unicode="&#xea;" horiz-adv-x="698" d="M16 -2l269 1456l647 55q-14 -45 -25 -92q-10 -39 -19 -81t-16 -74q-20 -2 -58 -3.5t-81 -2.5t-87 -1h-77l-71 -366q63 4 118 6q45 2 92.5 2t69.5 2q-8 -57 -15 -112.5t-18 -112.5q-20 -2 -66 -3t-93 -3q-53 -2 -117 -4l-70 -377l299 47l-20 -234zM328 1669q57 84 118 164 q51 68 112 141.5t114 126.5q80 -12 111.5 -10t35.5 -2q16 -55 36 -127t38 -135q23 -76 45 -152q-25 -20 -49 -41q-20 -18 -47 -37.5t-51 -37.5l-125 241q-23 -20 -53.5 -53t-61.5 -67.5t-61.5 -67.5t-51.5 -55q-27 23 -47 42t-33 35q-18 18 -30 35z" />
<glyph unicode="&#xeb;" horiz-adv-x="698" d="M16 -2l269 1456l647 55q-14 -45 -25 -92q-10 -39 -19 -81t-16 -74q-20 -2 -58 -3.5t-81 -2.5t-87 -1h-77l-71 -366q63 4 118 6q45 2 92.5 2t69.5 2q-8 -57 -15 -112.5t-18 -112.5q-20 -2 -66 -3t-93 -3q-53 -2 -117 -4l-70 -377l299 47l-20 -234zM203 1882q0 35 11 67.5 t33.5 57.5t57.5 41t82 16q100 0 148 -51t48 -115q0 -36 -13 -70t-42 -60.5t-69.5 -44t-92.5 -17.5q-82 0 -122.5 54.5t-40.5 121.5zM678 1882q0 35 11 67.5t33.5 57.5t58.5 41t83 16q98 0 147.5 -51t49.5 -115q0 -36 -14.5 -70t-42 -60.5t-67.5 -44t-95 -17.5 q-82 0 -123 54.5t-41 121.5z" />
<glyph unicode="&#xec;" horiz-adv-x="413" d="M10 2q20 88 42 195.5t44.5 225.5t43 238.5t38.5 233.5q43 262 86 539l320 51q-47 -274 -92 -539q-18 -113 -38 -233.5t-39.5 -239.5t-36 -230.5t-30.5 -201.5q-18 0 -72.5 -5t-112 -12.5l-103.5 -13.5t-50 -8zM196 1651q12 59 28.5 144t31.5 165q18 94 36 193 q80 -86 160 -168q68 -72 144.5 -154t134.5 -147l-15 -166q-104 25 -200 49q-84 18 -172 41.5t-148 42.5z" />
<glyph unicode="&#xed;" horiz-adv-x="413" d="M10 2q20 88 42 195.5t44.5 225.5t43 238.5t38.5 233.5q43 262 86 539l320 51q-47 -274 -92 -539q-18 -113 -38 -233.5t-39.5 -239.5t-36 -230.5t-30.5 -201.5q-18 0 -72.5 -5t-112 -12.5l-103.5 -13.5t-50 -8zM202 1585q0 33 1.5 67t1.5 70q139 141 262 252t229 228 q10 -137 11 -256t18 -244q-121 -49 -260.5 -99.5t-259.5 -95.5q-2 23 -2.5 41.5t-0.5 36.5z" />
<glyph unicode="&#xee;" horiz-adv-x="413" d="M10 2q20 88 42 195.5t44.5 225.5t43 238.5t38.5 233.5q43 262 86 539l320 51q-47 -274 -92 -539q-18 -113 -38 -233.5t-39.5 -239.5t-36 -230.5t-30.5 -201.5q-18 0 -72.5 -5t-112 -12.5l-103.5 -13.5t-50 -8zM160 1630q57 84 118 164q51 68 112 141.5t114 126.5 q80 -12 111.5 -10t35.5 -2q16 -55 36 -127t38 -135q23 -76 45 -152q-25 -20 -49 -41q-20 -18 -47 -37.5t-51 -37.5l-125 241q-23 -20 -53.5 -53t-61.5 -67.5t-61.5 -67.5t-51.5 -55q-27 23 -47 42t-33 35q-18 18 -30 35z" />
<glyph unicode="&#xef;" horiz-adv-x="413" d="M10 2q20 88 42 195.5t44.5 225.5t43 238.5t38.5 233.5q43 262 86 539l320 51q-47 -274 -92 -539q-18 -113 -38 -233.5t-39.5 -239.5t-36 -230.5t-30.5 -201.5q-18 0 -72.5 -5t-112 -12.5l-103.5 -13.5t-50 -8zM35 1843q0 35 11 67.5t33.5 57.5t57.5 41t82 16 q100 0 148 -51t48 -115q0 -36 -13 -70t-42 -60.5t-69.5 -44t-92.5 -17.5q-82 0 -122.5 54.5t-40.5 121.5zM510 1843q0 35 11 67.5t33.5 57.5t58.5 41t83 16q98 0 147.5 -51t49.5 -115q0 -36 -14.5 -70t-42 -60.5t-67.5 -44t-95 -17.5q-82 0 -123 54.5t-41 121.5z" />
<glyph unicode="&#xf0;" horiz-adv-x="911" d="M27 86q16 80 34 176q16 82 39 187.5t43 228.5q-14 -2 -27.5 -2h-23.5h-22l67 217q6 -2 15 -2h32q29 152 53.5 296t41.5 263q88 16 178 30.5t184 14.5q104 0 179 -38t120 -104.5t65.5 -155.5t20.5 -191q0 -109 -23.5 -225.5t-68.5 -227.5t-110.5 -211t-148.5 -175 t-183.5 -119t-212.5 -44q-66 0 -128.5 19.5t-123.5 62.5zM350 248q74 45 139.5 132t116.5 193.5t82 220t31 210.5q0 51 -10.5 95t-33 76.5t-55 51t-75.5 18.5q-20 -92 -38 -178t-34 -176q23 0 43.5 1t36.5 1t33 2l-49 -221h-31q-14 0 -31.5 1t-38.5 1q-20 -98 -39.5 -202.5 t-46.5 -225.5z" />
<glyph unicode="&#xf1;" horiz-adv-x="925" d="M10 -10q61 295 117 571q20 119 44 246t44.5 251t36.5 237.5t24 205.5q27 -2 45.5 -2h43.5q29 0 69.5 1t81.5 3t88 4q29 -143 51 -276q23 -117 46.5 -240t41.5 -209q8 41 18.5 95.5t23 114t23.5 119.5t23 120q29 133 60 274l250 31q-70 -313 -123 -594 q-25 -121 -48.5 -245t-44 -237.5t-34.5 -210.5t-23 -163q-6 0 -48 -9t-96 -21.5t-108.5 -25t-80.5 -22.5q-12 164 -27 311q-6 63 -13.5 130t-15.5 128.5t-16 114.5t-17 92q-6 -39 -16 -90t-20.5 -108.5t-20.5 -120t-22 -119.5q-27 -137 -58 -287zM403 1661l13 26 q12 27 34.5 67t54 87t70.5 87t84 67.5t98 27.5q49 0 87 -28.5t67 -61t46 -59.5t28 -27q31 0 59.5 21.5t55 52.5t51 61.5t45.5 49.5q25 -18 45 -35t36 -29t29 -27q-43 -100 -98 -178q-23 -35 -51.5 -65.5t-61.5 -55t-68.5 -40t-76.5 -15.5q-49 0 -75 21.5t-46.5 48t-42 48 t-64.5 21.5q-30 0 -59 -17t-54.5 -42t-50 -51.5t-44.5 -44.5q-27 18 -46.5 34.5t-36 29t-28.5 26.5z" />
<glyph unicode="&#xf2;" horiz-adv-x="1009" d="M63 412q0 115 29 241.5t78 251.5t120.5 237.5t158 200t184.5 138.5t205 51q92 0 152.5 -38t94 -98.5t48 -136t14.5 -151.5q0 -168 -36 -316.5t-95.5 -272.5t-138 -221t-164.5 -166t-174 -104.5t-168 -35.5q-68 0 -123 25.5t-96 75.5t-65 129t-24 190zM369 465 q0 -23 8 -47.5t22.5 -43t36 -31.5t45.5 -13q92 0 164 63.5t119 155.5t72.5 196.5t25.5 190.5q0 25 -3 53.5t-12 53t-28.5 42t-52.5 17.5q-66 0 -121 -33t-99 -87t-77 -122.5t-56.5 -139.5t-33.5 -138.5t-10 -116.5zM551 1710q12 59 28.5 144t31.5 165q18 94 36 193 q80 -86 160 -168q68 -72 144.5 -154t134.5 -147l-15 -166q-104 25 -200 49q-84 18 -172 41.5t-148 42.5z" />
<glyph unicode="&#xf3;" horiz-adv-x="1009" d="M63 412q0 115 29 241.5t78 251.5t120.5 237.5t158 200t184.5 138.5t205 51q92 0 152.5 -38t94 -98.5t48 -136t14.5 -151.5q0 -168 -36 -316.5t-95.5 -272.5t-138 -221t-164.5 -166t-174 -104.5t-168 -35.5q-68 0 -123 25.5t-96 75.5t-65 129t-24 190zM369 465 q0 -23 8 -47.5t22.5 -43t36 -31.5t45.5 -13q92 0 164 63.5t119 155.5t72.5 196.5t25.5 190.5q0 25 -3 53.5t-12 53t-28.5 42t-52.5 17.5q-66 0 -121 -33t-99 -87t-77 -122.5t-56.5 -139.5t-33.5 -138.5t-10 -116.5zM557 1644q0 33 1.5 67t1.5 70q139 141 262 252t229 228 q10 -137 11 -256t18 -244q-121 -49 -260.5 -99.5t-259.5 -95.5q-2 23 -2.5 41.5t-0.5 36.5z" />
<glyph unicode="&#xf4;" horiz-adv-x="1009" d="M63 412q0 115 29 241.5t78 251.5t120.5 237.5t158 200t184.5 138.5t205 51q92 0 152.5 -38t94 -98.5t48 -136t14.5 -151.5q0 -168 -36 -316.5t-95.5 -272.5t-138 -221t-164.5 -166t-174 -104.5t-168 -35.5q-68 0 -123 25.5t-96 75.5t-65 129t-24 190zM369 465 q0 -23 8 -47.5t22.5 -43t36 -31.5t45.5 -13q92 0 164 63.5t119 155.5t72.5 196.5t25.5 190.5q0 25 -3 53.5t-12 53t-28.5 42t-52.5 17.5q-66 0 -121 -33t-99 -87t-77 -122.5t-56.5 -139.5t-33.5 -138.5t-10 -116.5zM514 1689q57 84 118 164q51 68 112 141.5t114 126.5 q80 -12 111.5 -10t35.5 -2q16 -55 36 -127t38 -135q23 -76 45 -152q-25 -20 -49 -41q-20 -18 -47 -37.5t-51 -37.5l-125 241q-23 -20 -53.5 -53t-61.5 -67.5t-61.5 -67.5t-51.5 -55q-27 23 -47 42t-33 35q-18 18 -30 35z" />
<glyph unicode="&#xf5;" horiz-adv-x="1009" d="M63 412q0 115 29 241.5t78 251.5t120.5 237.5t158 200t184.5 138.5t205 51q92 0 152.5 -38t94 -98.5t48 -136t14.5 -151.5q0 -168 -36 -316.5t-95.5 -272.5t-138 -221t-164.5 -166t-174 -104.5t-168 -35.5q-68 0 -123 25.5t-96 75.5t-65 129t-24 190zM369 465 q0 -23 8 -47.5t22.5 -43t36 -31.5t45.5 -13q92 0 164 63.5t119 155.5t72.5 196.5t25.5 190.5q0 25 -3 53.5t-12 53t-28.5 42t-52.5 17.5q-66 0 -121 -33t-99 -87t-77 -122.5t-56.5 -139.5t-33.5 -138.5t-10 -116.5zM465 1720l13 26q12 27 34.5 67t54 87t70.5 87t84 67.5 t98 27.5q49 0 87 -28.5t67 -61t46 -59.5t28 -27q31 0 59.5 21.5t55 52.5t51 61.5t45.5 49.5q25 -18 45 -35t36 -29t29 -27q-43 -100 -98 -178q-23 -35 -51.5 -65.5t-61.5 -55t-68.5 -40t-76.5 -15.5q-49 0 -75 21.5t-46.5 48t-42 48t-64.5 21.5q-30 0 -59 -17t-54.5 -42 t-50 -51.5t-44.5 -44.5q-27 18 -46.5 34.5t-36 29t-28.5 26.5z" />
<glyph unicode="&#xf6;" horiz-adv-x="1009" d="M63 412q0 115 29 241.5t78 251.5t120.5 237.5t158 200t184.5 138.5t205 51q92 0 152.5 -38t94 -98.5t48 -136t14.5 -151.5q0 -168 -36 -316.5t-95.5 -272.5t-138 -221t-164.5 -166t-174 -104.5t-168 -35.5q-68 0 -123 25.5t-96 75.5t-65 129t-24 190zM369 465 q0 -23 8 -47.5t22.5 -43t36 -31.5t45.5 -13q92 0 164 63.5t119 155.5t72.5 196.5t25.5 190.5q0 25 -3 53.5t-12 53t-28.5 42t-52.5 17.5q-66 0 -121 -33t-99 -87t-77 -122.5t-56.5 -139.5t-33.5 -138.5t-10 -116.5zM390 1902q0 35 11 67.5t33.5 57.5t57.5 41t82 16 q100 0 148 -51t48 -115q0 -36 -13 -70t-42 -60.5t-69.5 -44t-92.5 -17.5q-82 0 -122.5 54.5t-40.5 121.5zM865 1902q0 35 11 67.5t33.5 57.5t58.5 41t83 16q98 0 147.5 -51t49.5 -115q0 -36 -14.5 -70t-42 -60.5t-67.5 -44t-95 -17.5q-82 0 -123 54.5t-41 121.5z" />
<glyph unicode="&#xf7;" horiz-adv-x="700" d="M84 518l59 277q59 -2 110.5 -4.5t104 -2.5h91.5h100t113.5 2.5t117.5 4.5l-53 -279q-76 0 -142.5 2t-133 3t-115.5 1q-37 0 -80 -1t-82 -1q-45 -2 -90 -2zM193 68q12 61 21 117.5t18.5 120t19.5 120.5q47 2 90 3t90 1h56.5t56.5 -2q-10 -51 -17.5 -93t-14.5 -84t-14 -85 t-16 -94q-39 -2 -88 -3t-96 -1h-106zM332 870q8 55 14 92t11 71t11.5 70t16.5 89q37 0 88 1t101.5 3t107.5 4q-14 -47 -25 -100q-10 -45 -19 -103.5t-20 -117.5q-65 -5 -133.5 -7t-152.5 -2z" />
<glyph unicode="&#xf8;" horiz-adv-x="1009" d="M-2 82l98 115q-33 92 -33 215q0 115 29 241.5t78 251.5t120.5 237.5t158 200t184.5 138.5t205 51q80 0 135 -28.5t92 -78.5l72 95l104 -78l35 41l-150 -193q10 -45 15.5 -91t5.5 -91q0 -168 -36 -316.5t-95.5 -272.5t-138 -221t-164.5 -166t-174 -104.5t-168 -35.5 q-123 0 -203 80l-68 -88zM354 555q0 -12 1 -25.5t3 -25.5l488 588q-51 88 -121 88q-66 0 -130.5 -60.5t-118.5 -154t-88 -204t-34 -206.5zM401 371q54 -27 105 -27q57 0 109.5 31t96.5 80t77.5 113.5t59 129t38 128t12.5 110.5q0 33 -4 55z" />
<glyph unicode="&#xf9;" horiz-adv-x="858" d="M63 213v16.5t3 16.5q8 84 26.5 202.5t39 247.5t45 259t44 236.5t33.5 177.5t18 87q43 4 102.5 10.5t110.5 10.5q63 6 125 12q-53 -248 -94 -449q-18 -86 -35.5 -172t-33 -157.5t-26.5 -123.5t-18.5 -85t-16.5 -83t-9 -91q0 -33 16.5 -54.5t40.5 -21.5q35 0 57.5 27.5 t38 66.5t22.5 79t13 62q12 59 27.5 132t31 152t31 161t29.5 160q35 180 68 372l311 21l-11 -53q-10 -54 -26 -142t-35.5 -200.5t-44 -234.5t-48.5 -239.5t-46 -216.5q-29 -116 -81 -198t-122.5 -135.5t-150.5 -78t-160 -24.5q-47 0 -96 15.5t-88 46t-65 78t-26 110.5z M510 1651q12 59 28.5 144t31.5 165q18 94 36 193q80 -86 160 -168q68 -72 144.5 -154t134.5 -147l-15 -166q-104 25 -200 49q-84 18 -172 41.5t-148 42.5z" />
<glyph unicode="&#xfa;" horiz-adv-x="858" d="M63 213v16.5t3 16.5q8 84 26.5 202.5t39 247.5t45 259t44 236.5t33.5 177.5t18 87q43 4 102.5 10.5t110.5 10.5q63 6 125 12q-53 -248 -94 -449q-18 -86 -35.5 -172t-33 -157.5t-26.5 -123.5t-18.5 -85t-16.5 -83t-9 -91q0 -33 16.5 -54.5t40.5 -21.5q35 0 57.5 27.5 t38 66.5t22.5 79t13 62q12 59 27.5 132t31 152t31 161t29.5 160q35 180 68 372l311 21l-11 -53q-10 -54 -26 -142t-35.5 -200.5t-44 -234.5t-48.5 -239.5t-46 -216.5q-29 -116 -81 -198t-122.5 -135.5t-150.5 -78t-160 -24.5q-47 0 -96 15.5t-88 46t-65 78t-26 110.5z M516 1585q0 33 1.5 67t1.5 70q139 141 262 252t229 228q10 -137 11 -256t18 -244q-121 -49 -260.5 -99.5t-259.5 -95.5q-2 23 -2.5 41.5t-0.5 36.5z" />
<glyph unicode="&#xfb;" horiz-adv-x="858" d="M63 213v16.5t3 16.5q8 84 26.5 202.5t39 247.5t45 259t44 236.5t33.5 177.5t18 87q43 4 102.5 10.5t110.5 10.5q63 6 125 12q-53 -248 -94 -449q-18 -86 -35.5 -172t-33 -157.5t-26.5 -123.5t-18.5 -85t-16.5 -83t-9 -91q0 -33 16.5 -54.5t40.5 -21.5q35 0 57.5 27.5 t38 66.5t22.5 79t13 62q12 59 27.5 132t31 152t31 161t29.5 160q35 180 68 372l311 21l-11 -53q-10 -54 -26 -142t-35.5 -200.5t-44 -234.5t-48.5 -239.5t-46 -216.5q-29 -116 -81 -198t-122.5 -135.5t-150.5 -78t-160 -24.5q-47 0 -96 15.5t-88 46t-65 78t-26 110.5z M473 1630q57 84 118 164q51 68 112 141.5t114 126.5q80 -12 111.5 -10t35.5 -2q16 -55 36 -127t38 -135q23 -76 45 -152q-25 -20 -49 -41q-20 -18 -47 -37.5t-51 -37.5l-125 241q-23 -20 -53.5 -53t-61.5 -67.5t-61.5 -67.5t-51.5 -55q-27 23 -47 42t-33 35q-18 18 -30 35z " />
<glyph unicode="&#xfc;" horiz-adv-x="858" d="M63 213v16.5t3 16.5q8 84 26.5 202.5t39 247.5t45 259t44 236.5t33.5 177.5t18 87q43 4 102.5 10.5t110.5 10.5q63 6 125 12q-53 -248 -94 -449q-18 -86 -35.5 -172t-33 -157.5t-26.5 -123.5t-18.5 -85t-16.5 -83t-9 -91q0 -33 16.5 -54.5t40.5 -21.5q35 0 57.5 27.5 t38 66.5t22.5 79t13 62q12 59 27.5 132t31 152t31 161t29.5 160q35 180 68 372l311 21l-11 -53q-10 -54 -26 -142t-35.5 -200.5t-44 -234.5t-48.5 -239.5t-46 -216.5q-29 -116 -81 -198t-122.5 -135.5t-150.5 -78t-160 -24.5q-47 0 -96 15.5t-88 46t-65 78t-26 110.5z M349 1843q0 35 11 67.5t33.5 57.5t57.5 41t82 16q100 0 148 -51t48 -115q0 -36 -13 -70t-42 -60.5t-69.5 -44t-92.5 -17.5q-82 0 -122.5 54.5t-40.5 121.5zM824 1843q0 35 11 67.5t33.5 57.5t58.5 41t83 16q98 0 147.5 -51t49.5 -115q0 -36 -14.5 -70t-42 -60.5t-67.5 -44 t-95 -17.5q-82 0 -123 54.5t-41 121.5z" />
<glyph unicode="&#xfd;" horiz-adv-x="786" d="M158 31l94 411q0 88 -3 191.5t-9.5 208t-12.5 202t-10 172t-8 119.5l-4 45l334 127v-250v-104t-1 -104.5t-1 -96.5v-75q27 70 64.5 172t70.5 198q39 113 80 238l317 -72q-88 -176 -172 -350q-35 -76 -74 -157t-77.5 -161.5t-75.5 -156.5t-68 -142q-10 -53 -25.5 -116.5 t-29.5 -120.5q-18 -68 -39 -135zM393 1624q0 33 1.5 67t1.5 70q139 141 262 252t229 228q10 -137 11 -256t18 -244q-121 -49 -260.5 -99.5t-259.5 -95.5q-2 23 -2.5 41.5t-0.5 36.5z" />
<glyph unicode="&#xfe;" horiz-adv-x="790" d="M2 -2q61 291 117 565q23 119 47 245t47 248t43 235.5t35 203.5q86 10 152.5 17.5t120.5 13.5t67 6l-43 -205q94 0 159.5 -31.5t107.5 -86t60.5 -126t18.5 -151.5q0 -115 -43 -219.5t-113.5 -185.5t-162 -129t-187.5 -48h-22q-16 -70 -24.5 -122t-14.5 -89q-8 -41 -11 -71 zM449 565q31 8 67.5 39t66 78t48 110.5t18.5 133.5q0 76 -33.5 114.5t-72.5 38.5q-25 -135 -47.5 -256t-46.5 -258z" />
<glyph unicode="&#xff;" horiz-adv-x="786" d="M158 31l94 411q0 88 -3 191.5t-9.5 208t-12.5 202t-10 172t-8 119.5l-4 45l334 127v-250v-104t-1 -104.5t-1 -96.5v-75q27 70 64.5 172t70.5 198q39 113 80 238l317 -72q-88 -176 -172 -350q-35 -76 -74 -157t-77.5 -161.5t-75.5 -156.5t-68 -142q-10 -53 -25.5 -116.5 t-29.5 -120.5q-18 -68 -39 -135zM226 1882q0 35 11 67.5t33.5 57.5t57.5 41t82 16q100 0 148 -51t48 -115q0 -36 -13 -70t-42 -60.5t-69.5 -44t-92.5 -17.5q-82 0 -122.5 54.5t-40.5 121.5zM701 1882q0 35 11 67.5t33.5 57.5t58.5 41t83 16q98 0 147.5 -51t49.5 -115 q0 -36 -14.5 -70t-42 -60.5t-67.5 -44t-95 -17.5q-82 0 -123 54.5t-41 121.5z" />
<glyph unicode="&#x152;" horiz-adv-x="1148" d="M72 479q0 102 26.5 215t72.5 219.5t112.5 205t147.5 174t173 124.5t193 58l585 38q-14 -45 -24 -92q-10 -39 -20.5 -81t-14.5 -74h-25q-45 0 -109.5 5t-121.5 5l-72 -369q37 -2 72 -2q31 -2 65.5 -2h63.5h33q-8 -57 -15.5 -112.5t-17.5 -112.5q-8 0 -17.5 -1t-19.5 -1 q-27 0 -60.5 1t-66.5 3t-63 4l-72 -379l252 33l-21 -234l-600 -84h-20q-119 0 -201 36t-134 97.5t-76.5 146.5t-24.5 179zM365 553q0 -86 44 -144.5t144 -58.5h16.5t18.5 2l141 766q-66 -10 -130 -68.5t-117.5 -141.5t-85 -178t-31.5 -177z" />
<glyph unicode="&#x153;" horiz-adv-x="1148" d="M72 479q0 102 26.5 215t72.5 219.5t112.5 205t147.5 174t173 124.5t193 58l585 38q-14 -45 -24 -92q-10 -39 -20.5 -81t-14.5 -74h-25q-45 0 -109.5 5t-121.5 5l-72 -369q37 -2 72 -2q31 -2 65.5 -2h63.5h33q-8 -57 -15.5 -112.5t-17.5 -112.5q-8 0 -17.5 -1t-19.5 -1 q-27 0 -60.5 1t-66.5 3t-63 4l-72 -379l252 33l-21 -234l-600 -84h-20q-119 0 -201 36t-134 97.5t-76.5 146.5t-24.5 179zM365 553q0 -86 44 -144.5t144 -58.5h16.5t18.5 2l141 766q-66 -10 -130 -68.5t-117.5 -141.5t-85 -178t-31.5 -177z" />
<glyph unicode="&#x178;" horiz-adv-x="786" d="M158 31l94 411q0 88 -3 191.5t-9.5 208t-12.5 202t-10 172t-8 119.5l-4 45l334 127v-250v-104t-1 -104.5t-1 -96.5v-75q27 70 64.5 172t70.5 198q39 113 80 238l317 -72q-88 -176 -172 -350q-35 -76 -74 -157t-77.5 -161.5t-75.5 -156.5t-68 -142q-10 -53 -25.5 -116.5 t-29.5 -120.5q-18 -68 -39 -135zM287 1843q0 35 11 67.5t33.5 57.5t57.5 41t82 16q100 0 148 -51t48 -115q0 -36 -13 -70t-42 -60.5t-69.5 -44t-92.5 -17.5q-82 0 -122.5 54.5t-40.5 121.5zM762 1843q0 35 11 67.5t33.5 57.5t58.5 41t83 16q98 0 147.5 -51t49.5 -115 q0 -36 -14.5 -70t-42 -60.5t-67.5 -44t-95 -17.5q-82 0 -123 54.5t-41 121.5z" />
<glyph unicode="&#x2c6;" horiz-adv-x="811" d="M101 1376q57 84 118 164q51 68 112 141.5t114 126.5q80 -12 111.5 -10t35.5 -2q16 -55 36 -127t38 -135q23 -76 45 -152q-25 -20 -49 -41q-20 -18 -47 -37.5t-51 -37.5l-125 241q-23 -20 -53.5 -53t-61.5 -67.5t-61.5 -67.5t-51.5 -55q-27 23 -47 42t-33 35 q-18 18 -30 35z" />
<glyph unicode="&#x2dc;" horiz-adv-x="1103" d="M100 1446l13 26q12 27 34.5 67t54 87t70.5 87t84 67.5t98 27.5q49 0 87 -28.5t67 -61t46 -59.5t28 -27q31 0 59.5 21.5t55 52.5t51 61.5t45.5 49.5q25 -18 45 -35t36 -29t29 -27q-43 -100 -98 -178q-23 -35 -51.5 -65.5t-61.5 -55t-68.5 -40t-76.5 -15.5q-49 0 -75 21.5 t-46.5 48t-42 48t-64.5 21.5q-30 0 -59 -17t-54.5 -42t-50 -51.5t-44.5 -44.5q-27 18 -46.5 34.5t-36 29t-28.5 26.5z" />
<glyph unicode="&#x2000;" horiz-adv-x="1145" />
<glyph unicode="&#x2001;" horiz-adv-x="2290" />
<glyph unicode="&#x2002;" horiz-adv-x="1145" />
<glyph unicode="&#x2003;" horiz-adv-x="2290" />
<glyph unicode="&#x2004;" horiz-adv-x="763" />
<glyph unicode="&#x2005;" horiz-adv-x="572" />
<glyph unicode="&#x2006;" horiz-adv-x="381" />
<glyph unicode="&#x2007;" horiz-adv-x="381" />
<glyph unicode="&#x2008;" horiz-adv-x="286" />
<glyph unicode="&#x2009;" horiz-adv-x="458" />
<glyph unicode="&#x200a;" horiz-adv-x="127" />
<glyph unicode="&#x2010;" horiz-adv-x="737" d="M84 489l98 363q55 -2 105.5 -4t101.5 -3t86 -1q43 0 102.5 1t118 3t121.5 6l-69 -367q-72 2 -136.5 4.5t-131 3.5t-111.5 1q-37 0 -85 -1t-97.5 -3.5t-102.5 -2.5z" />
<glyph unicode="&#x2011;" horiz-adv-x="737" d="M84 489l98 363q55 -2 105.5 -4t101.5 -3t86 -1q43 0 102.5 1t118 3t121.5 6l-69 -367q-72 2 -136.5 4.5t-131 3.5t-111.5 1q-37 0 -85 -1t-97.5 -3.5t-102.5 -2.5z" />
<glyph unicode="&#x2012;" horiz-adv-x="737" d="M84 489l98 363q55 -2 105.5 -4t101.5 -3t86 -1q43 0 102.5 1t118 3t121.5 6l-69 -367q-72 2 -136.5 4.5t-131 3.5t-111.5 1q-37 0 -85 -1t-97.5 -3.5t-102.5 -2.5z" />
<glyph unicode="&#x2013;" horiz-adv-x="737" d="M84 489l98 363q55 -2 105.5 -4t101.5 -3t86 -1q43 0 102.5 1t118 3t121.5 6l-69 -367q-72 2 -136.5 4.5t-131 3.5t-111.5 1q-37 0 -85 -1t-97.5 -3.5t-102.5 -2.5z" />
<glyph unicode="&#x2014;" horiz-adv-x="1064" d="M84 500l78 344q8 4 63 4q27 0 59.5 -1t66.5 -1t64.5 -1t53.5 -1h61t92.5 1t111 2t116.5 1q135 2 295 6l-72 -367q-55 0 -150.5 2.5t-203 3.5t-220 2t-202.5 2t-149.5 2t-63.5 1z" />
<glyph unicode="&#x2018;" horiz-adv-x="413" d="M160 944q29 111 55 221q25 96 52.5 211t49.5 217q12 -2 35 -3t45.5 -2t45 -1h32.5q29 0 67 4t74.5 10.5t79.5 14.5l-200 -637z" />
<glyph unicode="&#x2019;" horiz-adv-x="413" d="M150 963q8 25 21 66.5t28.5 91.5t33 105.5t33.5 108.5q37 127 82 271l166 -4l184 4q-49 -141 -88 -267q-18 -51 -36.5 -105t-34 -102.5t-28.5 -87t-22 -63.5q3 0 -22 0t-61.5 -3t-81.5 -5t-83 -5t-65 -4z" />
<glyph unicode="&#x201a;" horiz-adv-x="460" d="M-59 -338q29 111 55 221q25 96 52.5 211t49.5 217q12 -2 35 -3t45.5 -2t45 -1h32.5q29 0 67 4t74.5 10.5t79.5 14.5l-200 -637z" />
<glyph unicode="&#x201c;" horiz-adv-x="825" d="M150 741l67 387l70 418h319l-147 -786zM571 760q10 61 23 125q10 51 21.5 110.5t21.5 104.5l29.5 177t23.5 144.5t19 120.5h317l-129 -778h-168z" />
<glyph unicode="&#x201d;" horiz-adv-x="819" d="M164 805l53 352l70 428h329l-145 -749zM575 807l72 346l86 432l309 19l-147 -797h-320z" />
<glyph unicode="&#x201e;" horiz-adv-x="944" d="M-62 -373q37 137 72 264q14 55 30.5 113.5t32 116t28 109.5t22.5 93q18 -2 35.5 -2h31.5q76 0 143.5 4.5t147.5 4.5q-37 -84 -82 -198t-82 -218q-47 -121 -90 -248zM375 -352q47 121 90 237q39 102 79 216t66 206q53 2 95 5t81 7t80 9.5t92 11.5q-37 -102 -83 -218 t-89 -218q-49 -117 -98 -236z" />
<glyph unicode="&#x2022;" horiz-adv-x="581" d="M86 588q0 74 22.5 163t72.5 164.5t129 128t192 52.5q55 0 92 -24.5t57.5 -62.5t28.5 -84t8 -87q0 -72 -23.5 -151t-74.5 -145.5t-130 -109.5t-188 -43q-92 0 -139 60.5t-47 138.5z" />
<glyph unicode="&#x2026;" horiz-adv-x="1579" d="M21 145q0 39 12 75t37.5 63.5t63.5 46t91 18.5q119 0 178.5 -56t59.5 -128q0 -39 -17.5 -78t-50 -68.5t-82 -47t-112.5 -17.5q-43 0 -78 16.5t-56.5 44t-33.5 62.5t-12 69zM555 145q0 39 12 75t37.5 63.5t63.5 46t91 18.5q119 0 178.5 -56t59.5 -128q0 -39 -17.5 -78 t-50 -68.5t-82 -47t-112.5 -17.5q-43 0 -78 16.5t-56.5 44t-33.5 62.5t-12 69zM1098 145q0 39 12 75t37.5 63.5t63.5 46t91 18.5q119 0 178.5 -56t59.5 -128q0 -39 -17.5 -78t-50 -68.5t-82 -47t-112.5 -17.5q-43 0 -78 16.5t-56.5 44t-33.5 62.5t-12 69z" />
<glyph unicode="&#x202f;" horiz-adv-x="458" />
<glyph unicode="&#x2039;" horiz-adv-x="542" d="M63 469q27 139 46.5 276.5t40.5 276.5q152 115 302 231.5t289 253.5q-33 -117 -60.5 -236.5t-51.5 -242.5q-90 -72 -184.5 -136.5t-184.5 -131.5q76 -68 150.5 -136.5t150.5 -136.5q-22 -106 -43.5 -212.5t-48.5 -215.5q-100 104 -203.5 202.5t-202.5 207.5z" />
<glyph unicode="&#x203a;" horiz-adv-x="555" d="M8 2q33 121 55.5 244t42.5 246q96 70 193.5 135t194.5 133q-70 61 -139.5 124.5t-141.5 125.5q10 119 23.5 233.5t25.5 233.5q109 -111 218.5 -217.5t219.5 -217.5q-29 -145 -51 -286.5t-45 -286.5q-149 -113 -303 -223.5t-293 -243.5z" />
<glyph unicode="&#x205f;" horiz-adv-x="572" />
<glyph unicode="&#x20ac;" horiz-adv-x="970" d="M88 481q12 41 22.5 75t18.5 68.5t12 63.5h72l18 80h-65q-14 0 -27 2q10 37 21 72q10 31 18 65.5t19 65.5l104 -6q49 109 111.5 207t137.5 171.5t159 116.5t174 43q55 0 97 -31.5t70.5 -88t46 -133t21.5 -165.5l-237 -94q-8 53 -26.5 85t-51.5 32q-53 0 -102.5 -41 t-90.5 -104h125q-8 -35 -14 -68t-13.5 -66.5t-13.5 -60.5q-23 -2 -40 -2h-33h-101q-8 -23 -13 -41t-11 -39h90t86 -2q-6 -29 -12.5 -62.5t-10.5 -64.5q-6 -35 -8 -72l-170 -2q4 -72 30.5 -116.5t84.5 -44.5q45 0 84 29.5t69 76.5l176 -160q-71 -120 -164.5 -194t-211.5 -74 q-94 0 -162 35t-110 95.5t-61.5 141t-19.5 175.5v32h-98z" />
<glyph unicode="&#x2122;" horiz-adv-x="1921" d="M231 498q45 152 84 301q18 61 36 128.5t33 135t29.5 128t24.5 114.5q-47 4 -92 3t-90 9q2 20 3 50t3 56q2 33 4 70q98 -6 203 -6q96 0 188.5 3t168 7t151.5 10l-19 -71q-8 -29 -17 -64t-17 -57q-41 -10 -85 -13.5t-87 -9.5q-29 -96 -59.5 -224t-55.5 -249 q-31 -139 -59 -282zM725 489q80 184 152 361q29 74 62.5 154.5t64 160.5t57 155t47.5 136q117 0 218 8.5t218 16.5q-10 -53 -26.5 -128t-33 -151t-36.5 -164h18q43 92 85 168t85 151t78 126q102 14 205.5 27.5t208.5 35.5q-31 -63 -55.5 -140t-46 -158t-37 -164t-27.5 -160 q-31 -182 -45 -369l-365 -41q0 8 12.5 63.5t30 128t36 148.5t30.5 127h-19l-204 -463q-66 -2 -133.5 -3t-130.5 -5l67 471h-14q-4 -16 -18.5 -56t-34 -89.5t-39 -103.5t-38 -99t-30.5 -76t-14 -33z" />
<glyph unicode="&#x25fc;" horiz-adv-x="1495" d="M0 0v1495h1495v-1495h-1495z" />
</font>
</defs>
</svg>
